<svg width="170" height="52" viewBox="0 0 170 52" fill="none" xmlns="http://www.w3.org/2000/svg">
<path d="M74.01 45L71.126 35.732H72.232L74.612 43.516L77.104 35.732H78.308L80.8 43.516L83.18 35.732H84.286L81.402 45H80.212L77.706 37.216L75.2 45H74.01ZM87.8113 45.112C87.1299 45.112 86.5326 44.9533 86.0193 44.636C85.5153 44.3093 85.1233 43.8707 84.8433 43.32C84.5633 42.7693 84.4233 42.1627 84.4233 41.5C84.4233 40.828 84.5633 40.2213 84.8433 39.68C85.1233 39.1293 85.5153 38.6953 86.0193 38.378C86.5326 38.0513 87.1299 37.888 87.8113 37.888C88.3899 37.888 88.8846 38 89.2953 38.224C89.7153 38.448 90.0559 38.7513 90.3173 39.134V38H91.3673V45H90.3173V43.88C90.0559 44.2533 89.7153 44.552 89.2953 44.776C88.8846 45 88.3899 45.112 87.8113 45.112ZM87.9513 44.16C88.4739 44.16 88.9126 44.0387 89.2673 43.796C89.6313 43.5533 89.9066 43.2313 90.0933 42.83C90.2799 42.4193 90.3733 41.976 90.3733 41.5C90.3733 41.0147 90.2799 40.5713 90.0933 40.17C89.9066 39.7687 89.6313 39.4467 89.2673 39.204C88.9126 38.9613 88.4739 38.84 87.9513 38.84C87.4379 38.84 86.9946 38.9613 86.6213 39.204C86.2479 39.4467 85.9633 39.7687 85.7673 40.17C85.5713 40.5713 85.4733 41.0147 85.4733 41.5C85.4733 41.976 85.5713 42.4193 85.7673 42.83C85.9633 43.2313 86.2479 43.5533 86.6213 43.796C86.9946 44.0387 87.4379 44.16 87.9513 44.16ZM93.1834 45V38H94.2334V39.722C94.2708 39.6007 94.3408 39.442 94.4434 39.246C94.5554 39.0407 94.7141 38.8353 94.9194 38.63C95.1248 38.4247 95.3814 38.252 95.6894 38.112C96.0068 37.9627 96.3801 37.888 96.8094 37.888H96.8794V38.938H96.7534C96.2308 38.938 95.7781 39.0827 95.3954 39.372C95.0221 39.652 94.7328 40.0207 94.5274 40.478C94.3314 40.926 94.2334 41.4067 94.2334 41.92V45H93.1834ZM98.0096 45V38H99.0596V39.722C99.0969 39.6007 99.1669 39.442 99.2696 39.246C99.3816 39.0407 99.5403 38.8353 99.7456 38.63C99.9509 38.4247 100.208 38.252 100.516 38.112C100.833 37.9627 101.206 37.888 101.636 37.888H101.706V38.938H101.58C101.057 38.938 100.604 39.0827 100.222 39.372C99.8483 39.652 99.5589 40.0207 99.3536 40.478C99.1576 40.926 99.0596 41.4067 99.0596 41.92V45H98.0096ZM105.612 45.112C104.931 45.112 104.333 44.9533 103.82 44.636C103.316 44.3093 102.924 43.8707 102.644 43.32C102.364 42.7693 102.224 42.1627 102.224 41.5C102.224 40.828 102.364 40.2213 102.644 39.68C102.924 39.1293 103.316 38.6953 103.82 38.378C104.333 38.0513 104.931 37.888 105.612 37.888C106.191 37.888 106.685 38 107.096 38.224C107.516 38.448 107.857 38.7513 108.118 39.134V38H109.168V45H108.118V43.88C107.857 44.2533 107.516 44.552 107.096 44.776C106.685 45 106.191 45.112 105.612 45.112ZM105.752 44.16C106.275 44.16 106.713 44.0387 107.068 43.796C107.432 43.5533 107.707 43.2313 107.894 42.83C108.081 42.4193 108.174 41.976 108.174 41.5C108.174 41.0147 108.081 40.5713 107.894 40.17C107.707 39.7687 107.432 39.4467 107.068 39.204C106.713 38.9613 106.275 38.84 105.752 38.84C105.239 38.84 104.795 38.9613 104.422 39.204C104.049 39.4467 103.764 39.7687 103.568 40.17C103.372 40.5713 103.274 41.0147 103.274 41.5C103.274 41.976 103.372 42.4193 103.568 42.83C103.764 43.2313 104.049 43.5533 104.422 43.796C104.795 44.0387 105.239 44.16 105.752 44.16ZM110.984 45V38H112.034V39.092C112.286 38.756 112.594 38.4713 112.958 38.238C113.322 38.0047 113.789 37.888 114.358 37.888C114.844 37.888 115.296 38.0047 115.716 38.238C116.146 38.462 116.491 38.8027 116.752 39.26C117.023 39.708 117.158 40.2633 117.158 40.926V45H116.108V40.954C116.108 40.3193 115.926 39.8107 115.562 39.428C115.198 39.036 114.727 38.84 114.148 38.84C113.756 38.84 113.402 38.9287 113.084 39.106C112.767 39.2833 112.51 39.5353 112.314 39.862C112.128 40.1793 112.034 40.548 112.034 40.968V45H110.984ZM119.506 45V38.924H118.078V38H119.506V35.494H120.556V38H122.166V38.924H120.556V45H119.506ZM124.044 47.772L125.318 44.902L122.462 38H123.624L125.878 43.74L128.174 38H129.322L125.178 47.772H124.044Z" fill="black"/>
<path d="M19.446 2.89546L7.73644 7.29343C5.03784 8.29934 2.83203 11.4808 2.83203 14.3348L2.83203 31.7162C2.83203 34.4766 4.66238 38.1026 6.89166 39.7635L16.9821 47.2728C20.2908 49.7525 25.7349 49.7525 29.0436 47.2728L39.134 39.7635C41.3633 38.1026 43.1937 34.4766 43.1937 31.7162V14.3348C43.1937 11.4575 40.9878 8.27595 38.2893 7.27003L26.5797 2.89546C24.5851 2.17026 21.3937 2.17026 19.446 2.89546Z" stroke="#1968B2" stroke-width="4.20897" stroke-linecap="round" stroke-linejoin="round"/>
<path d="M14.7461 25.3692L19.4844 30.0931L32.1396 17.4766" stroke="#1968B2" stroke-width="4.20897" stroke-linecap="round" stroke-linejoin="round"/>
<path d="M58.8545 13.8004H56.4169V10.2415H63.0959V27.3047H58.8545V13.8004ZM84.0518 10.2415H88.9026L82.443 21.6982V27.3047H78.2016V21.6982L71.7176 10.2415H76.5684L80.3223 17.2862L84.0518 10.2415ZM103.508 13.8004H94.9525V16.9937H101.339V20.3088H94.9525V23.7458H103.508V27.3047H90.711V10.2415H103.508V13.8004ZM114.483 13.8004H113.63L108.901 27.3047H104.514L110.754 10.2415L117.482 10.2415L123.673 27.3047H119.285L114.483 13.8004ZM109.072 20.3332H119.017V23.8921H109.072V20.3332ZM134.98 15.7992C134.98 15.1817 134.794 14.6942 134.42 14.3367C134.046 13.9792 133.477 13.8004 132.714 13.8004H129.374V17.8224H132.714C133.217 17.8224 133.632 17.7493 133.957 17.603C134.298 17.4405 134.55 17.2049 134.712 16.8961C134.891 16.5874 134.98 16.2217 134.98 15.7992ZM132.982 10.2415C134.395 10.2415 135.565 10.5015 136.492 11.0215C137.434 11.5253 138.133 12.1997 138.588 13.0447C139.059 13.8898 139.295 14.8079 139.295 15.7992C139.295 16.4818 139.165 17.1562 138.905 17.8224C138.661 18.4887 138.279 19.09 137.759 19.6263C137.256 20.1625 136.606 20.5932 135.809 20.9182C135.013 21.2269 134.07 21.3813 132.982 21.3813H129.374V27.3047H125.133V10.2415L132.982 10.2415ZM135.127 19.9188L139.612 27.3047H134.932L130.69 19.9188H135.127Z" fill="#1968B2"/>
</svg>
