<svg width="38" height="37" viewBox="0 0 38 37" fill="none" xmlns="http://www.w3.org/2000/svg">
<g id="Group 1171279668">
<g id="Mask group">
<mask id="mask0_1932_71725" style="mask-type:alpha" maskUnits="userSpaceOnUse" x="1" y="0" width="36" height="36">
<ellipse id="Ellipse 10433" cx="19" cy="18.3458" rx="18" ry="17.6541" fill="#F4ABA4"/>
</mask>
<g mask="url(#mask0_1932_71725)">
<ellipse id="Ellipse 10434" cx="19" cy="18.3458" rx="18" ry="17.6541" fill="white"/>
<g id="Group 1171279650">
<circle id="Ellipse 10443" cx="2.9083" cy="2.9083" r="2.9083" transform="matrix(-1 0 0 1 17.0664 25.6733)" fill="#D14A61"/>
<circle id="Ellipse 10441" cx="2.9083" cy="2.9083" r="2.9083" transform="matrix(-1 0 0 1 34.917 25.6733)" fill="#D14A61"/>
<path id="Vector 1713" d="M18.4139 9.95081H44.1748V28.2366H11.127C10.0224 28.2366 9.12697 27.3412 9.12697 26.2366V22.8243C9.12697 22.1141 9.50365 21.4571 10.1166 21.0983L11.3523 20.3749C11.6733 20.187 11.9355 19.9134 12.1096 19.5847L16.6464 11.015C16.993 10.3603 17.6731 9.95081 18.4139 9.95081Z" fill="url(#paint0_linear_1932_71725)"/>
<path id="Vector 1714" d="M17.4568 12.3752L15.2211 16.9395C14.5702 18.2683 15.5375 19.8193 17.0172 19.8193H25.5459C26.6505 19.8193 27.5459 18.9238 27.5459 17.8193V13.2549C27.5459 12.1504 26.6505 11.2549 25.5459 11.2549H19.2529C18.4895 11.2549 17.7926 11.6896 17.4568 12.3752Z" fill="#FAEBED"/>
<path id="Vector 1715" opacity="0.5" d="M27.5459 17.8193V13.2549C27.5459 12.1504 26.6505 11.2549 25.5459 11.2549H25.1436L20.6782 19.8193H25.5459C26.6505 19.8193 27.5459 18.9238 27.5459 17.8193Z" fill="#FFA3B3"/>
<rect id="Rectangle 34625579" width="7.99937" height="2.23319" rx="1.11659" transform="matrix(-1 0 0 1 18.0537 22.3723)" fill="#D14A61"/>
<circle id="Ellipse 10439" cx="2.9083" cy="2.9083" r="2.9083" transform="matrix(-1 0 0 1 42.6895 25.6733)" fill="#D14A61"/>
<circle id="Ellipse 10437" cx="2.9083" cy="2.9083" r="2.9083" transform="matrix(-1 0 0 1 24.2871 25.6733)" fill="#D14A61"/>
<circle id="Ellipse 10444" cx="1.25361" cy="1.25361" r="1.25361" transform="matrix(-1 0 0 1 22.6318 27.3282)" fill="#FFA3B3"/>
</g>
</g>
</g>
<path id="Vector" d="M13.055 6.79939C11.696 8.5942 9.05735 8.82479 7.78998 6.74503C11.2635 6.30434 11.5035 0.0883431 14.7576 1.36716C14.2227 1.5639 13.8205 1.61783 13.5317 1.94645C13.1169 2.4184 13.0158 3.00318 12.7253 3.6025C12.1441 4.80115 11.5395 6.07927 9.84944 6.86518C11.6376 6.03364 12.3704 5.26351 12.9508 4.06641C13.241 3.46786 13.5139 2.91599 13.8894 2.48876C14.1506 2.19165 14.4584 1.95208 14.8668 1.79L14.8651 1.78564C14.9983 1.73235 15.1283 1.69355 15.2538 1.66782C15.2851 1.66023 15.3167 1.6529 15.3489 1.64605L15.3589 1.64919C15.7298 1.59392 16.061 1.65512 16.3321 1.80081C16.1788 1.71844 16.0014 1.66802 15.7972 1.6658C13.5948 1.94662 14.5072 4.88157 13.055 6.79939Z" fill="#D14A61"/>
<path id="Ellipse 10433_2" d="M3.0602 10.1369C1.74455 12.5892 1 15.3822 1 18.3458C1 28.0959 9.05887 35.9999 19 35.9999C28.9411 35.9999 37 28.0959 37 18.3458C37 8.59576 28.9411 0.691772 19 0.691772C17.2039 0.691772 15.4692 0.949788 13.8324 1.43009" stroke="#D14A61" stroke-width="0.5" stroke-linecap="round" stroke-linejoin="round"/>
</g>
<defs>
<linearGradient id="paint0_linear_1932_71725" x1="43.3398" y1="19.0938" x2="9.12697" y2="19.0937" gradientUnits="userSpaceOnUse">
<stop stop-color="#FF001F"/>
<stop offset="0.623929" stop-color="#F98DAC"/>
<stop offset="0.989583" stop-color="#FDD7E4"/>
</linearGradient>
</defs>
</svg>
