<svg width="219" height="48" viewBox="0 0 219 48" fill="none" xmlns="http://www.w3.org/2000/svg">
<path fill-rule="evenodd" clip-rule="evenodd" d="M28.4705 19.6531C27.3607 19.6583 26.2979 20.1973 25.5155 21.1517C24.733 22.1061 24.2947 23.398 24.2969 24.7438C24.299 26.0897 24.7414 27.3795 25.5269 28.3302C26.3124 29.281 27.3768 29.815 28.4866 29.815C29.5964 29.815 30.6608 29.281 31.4463 28.3302C32.2318 27.3795 32.6742 26.0897 32.6763 24.7438C32.6785 23.398 32.2402 22.1061 31.4577 21.1517C30.6753 20.1973 29.6125 19.6583 28.5028 19.6531" fill="#EE3738"/>
<path fill-rule="evenodd" clip-rule="evenodd" d="M49.7716 48C53.2405 47.8825 54.1319 46.8015 57 39.9627C53.0402 44.5219 52.1488 44.7569 49.7716 44.7569H7.22189C4.8512 44.7569 3.99207 44.5219 0 39.9627C2.86809 46.8015 3.75952 47.8825 7.22189 48H49.7716Z" fill="#2957A4"/>
<path d="M46.9169 42.9192H47.5629V43.4597H46.9169V42.9192ZM46.9169 41.3525H47.5629V41.893H46.9169V41.3525ZM42.8796 42.504C42.8796 41.6267 43.9842 41.7207 43.9842 41.7207L44.1134 42.0967C44.0036 42.0967 43.4352 42.0497 43.4093 42.5197C43.4157 42.6416 43.4609 42.7557 43.5354 42.8379C43.6099 42.9201 43.7079 42.9639 43.8085 42.96H43.8228C43.9193 42.9666 44.0159 42.9467 44.1054 42.902C44.1948 42.8573 44.2748 42.7887 44.3395 42.7014V41.3697H42.5437V40.9874H46.5164V41.3728H44.8886V41.9384C45.0489 41.7895 45.2476 41.7146 45.4493 41.7269C45.9079 41.7269 46.302 42.0795 46.302 42.5103C46.302 43.0587 45.656 43.5522 45.656 43.5522L45.2426 43.2937C45.2426 43.2937 45.7464 42.9333 45.7464 42.5103C45.7434 42.4004 45.7046 42.2965 45.6385 42.2214C45.5723 42.1462 45.4843 42.1058 45.3937 42.1092H45.3782C45.2802 42.1221 45.1855 42.1594 45.0999 42.2187C45.0143 42.278 44.9398 42.3581 44.8808 42.4539V43.8405H44.3382V43.1668C43.7375 43.5224 42.8861 43.2091 42.8861 42.504H42.8796ZM42.4727 40.0756C42.3751 40.0356 42.2718 40.0196 42.1691 40.0286C41.6097 40.0286 41.6717 40.8746 42.1122 40.9921H41.7492C41.6394 40.9357 41.3435 40.6239 41.3487 40.3341C41.3681 39.8092 42.0076 39.5272 42.4727 39.7779V40.0756ZM41.1032 40.9859H42.4533V41.3713H42.1303V43.8373H41.5696V41.3681H41.1032V40.9859ZM40.0632 41.8883C40.1351 41.8992 40.2081 41.8897 40.2765 41.8606C40.3448 41.8315 40.4067 41.7836 40.4573 41.7207C40.4896 41.3525 39.695 41.2036 39.695 41.6423C39.7157 41.7833 39.8824 41.8852 40.0697 41.8852L40.0632 41.8883ZM38.739 40.9859H41.1032V41.3713H40.8125C41.3164 41.9823 40.8513 42.891 40.0193 42.938C40.0193 42.938 40.2196 43.1025 40.3552 43.1965L40.8138 43.5099L40.4909 43.8624C39.9715 43.5699 39.4888 43.1902 39.0568 42.7343L39.4056 42.421L39.6123 42.5777C39.6897 42.6105 39.774 42.6105 39.8514 42.5777C40.3423 42.4837 40.4198 42.2267 40.4327 42.0998C39.8643 42.4523 38.9664 41.9431 39.3023 41.3164H38.7416L38.739 40.9859ZM35.6642 40.9859H38.7519V41.3713H38.1641V42.1547H36.8722C36.7966 42.153 36.7237 42.1876 36.6692 42.2511C36.6147 42.3145 36.5832 42.4015 36.5815 42.4931V42.5087C36.5815 43.0258 37.3825 43.2138 37.5375 43.1119C37.5372 43.0481 37.5472 42.9848 37.5671 42.9257C37.5871 42.8666 37.6164 42.8129 37.6535 42.7676C37.6906 42.7223 37.7347 42.6863 37.7833 42.6618C37.8319 42.6373 37.8841 42.6247 37.9367 42.6247H37.9638C38.3837 42.6247 38.4548 43.22 38.0866 43.3375C38.1283 43.442 38.1803 43.5398 38.2416 43.629C38.3256 43.77 38.4806 43.9736 38.4806 43.9736H37.8734C37.8734 43.9736 37.783 43.817 37.7339 43.7151C37.7054 43.6396 37.6731 43.5663 37.637 43.4958C37.637 43.4958 35.9833 43.5741 35.9962 42.4617C35.9962 42.1092 36.3515 41.8194 36.7585 41.8194H37.6021V41.4073H35.6642V40.9859ZM34.7211 42.6858V43.0148L33.3646 43.7982L33.0545 43.4237L34.7211 42.6858ZM34.1656 43.0305C33.4356 43.0305 33.2031 42.4194 33.2031 42.2471V41.3681H32.8052V40.9859H35.6061V41.3713H35.2895V43.8373H34.7405V42.8879C34.5644 42.9944 34.3684 43.043 34.172 43.0289L34.1656 43.0305ZM34.734 41.3697H33.7586V42.2706C33.7586 42.4743 33.8749 42.6701 34.1914 42.6858C34.2933 42.6848 34.3941 42.6585 34.4874 42.6087C34.5807 42.5589 34.6646 42.4865 34.734 42.3959V41.3697ZM31.446 40.9859H32.7897V41.3697H32.4654V43.8373H31.906V41.3681H31.4473V40.9859H31.446ZM30.3027 41.7207V42.0575C30.167 42.0575 29.556 42.0011 29.556 41.4919C29.556 41.1472 29.9177 40.9201 30.3311 40.9248C30.8595 40.9248 31.3065 41.3258 31.3065 41.8021C31.3065 42.2784 30.7897 42.6952 30.2924 42.6795C30.367 42.7851 30.4623 42.8664 30.5695 42.9159C30.6766 42.9655 30.7923 42.9817 30.906 42.9631C31.3128 42.9396 31.6957 42.7229 31.9719 42.3599V42.9866C31.1127 43.6525 29.7174 43.3234 29.4784 42.2581C29.6477 42.3076 29.8211 42.3338 29.9952 42.3364C30.344 42.3364 30.7575 42.1719 30.7575 41.7645C30.7613 41.6452 30.7261 41.5289 30.6596 41.4408C30.5931 41.3528 30.5005 41.3002 30.4022 41.2945C30.3785 41.2921 30.3548 41.2921 30.3311 41.2945C29.9758 41.2945 29.9629 41.7175 30.3117 41.7175L30.3027 41.7207ZM28.0147 43.0289C27.2847 43.0289 27.0522 42.4179 27.0522 42.2455V41.3666H26.6517V40.9843H29.4746V41.3697H29.1516V43.8358H28.5948V42.8863C28.4177 42.9958 28.2194 43.0446 28.0211 43.0273L28.0147 43.0289ZM28.5754 41.3681H27.6026V42.269C27.6026 42.4727 27.7317 42.6685 28.0354 42.6842C28.1376 42.6855 28.2389 42.6603 28.3325 42.6103C28.426 42.5604 28.5097 42.4867 28.578 42.3944L28.5754 41.3681ZM23.2164 42.9349H23.8624V43.4754H23.2164V42.9349ZM23.2164 41.3681H23.8624V41.9087H23.2164V41.3681ZM19.1727 42.504C19.1727 41.6267 20.2773 41.7207 20.2773 41.7207L20.4 42.0967C20.2902 42.0967 19.7541 42.0497 19.6959 42.5197C19.7023 42.6413 19.7473 42.7552 19.8215 42.8374C19.8958 42.9195 19.9934 42.9634 20.0938 42.96H20.1094C20.206 42.9666 20.3025 42.9467 20.392 42.902C20.4814 42.8573 20.5615 42.7887 20.6261 42.7014V41.3697H18.8368V40.9874H22.803V41.3728H21.1778V41.9384C21.3336 41.7912 21.5268 41.7142 21.7243 41.7207C22.1829 41.7207 22.5769 42.0732 22.5769 42.504C22.5769 43.0524 21.931 43.5459 21.931 43.5459L21.5176 43.2874C21.5176 43.2874 22.0214 42.9286 22.0214 42.504C22.0201 42.4496 22.0099 42.396 21.9914 42.3463C21.9729 42.2966 21.9466 42.2519 21.9138 42.2146C21.881 42.1773 21.8425 42.1483 21.8004 42.1291C21.7584 42.11 21.7136 42.1011 21.6687 42.103H21.6545C21.5564 42.116 21.4616 42.1534 21.376 42.213C21.2904 42.2726 21.2158 42.353 21.1571 42.4492V43.8358H20.608V43.1621C20.0318 43.5224 19.1727 43.2091 19.1727 42.504ZM15.7685 40.9921H18.8433V41.376H18.5332V43.8358H17.9647V42.3709H16.9893V42.7625C16.991 42.7843 16.9888 42.8062 16.9831 42.8268C16.9773 42.8475 16.968 42.8665 16.9559 42.8826C16.9437 42.8986 16.9289 42.9115 16.9124 42.9202C16.8959 42.9289 16.8781 42.9334 16.8601 42.9333C16.8516 42.9349 16.8429 42.9349 16.8343 42.9333C16.528 42.7707 16.2708 42.497 16.0979 42.15C16.0979 41.9619 16.2982 41.9541 16.324 41.9541H17.9647V41.3447H15.7607L15.7685 40.9921ZM14.4055 40.9921H15.7555V41.376H15.4326V43.8358H14.8641V41.3681H14.3977L14.4055 40.9921ZM13.5334 41.376H12.6032V42.2142H13.5334V41.376ZM11.3242 40.9921H14.399V41.376H14.089V43.8358H13.5283V42.5824H12.5981V42.9114C12.5974 42.9371 12.5926 42.9624 12.5838 42.9859C12.5751 43.0093 12.5626 43.0305 12.5471 43.0481C12.5317 43.0657 12.5135 43.0794 12.4936 43.0885C12.4738 43.0976 12.4526 43.1018 12.4314 43.101H12.4237C12.1066 42.9327 11.8339 42.6616 11.6356 42.3176C11.6356 42.1938 11.8358 42.1766 11.8487 42.1766H12.0361V41.3697H11.3242V40.9921Z" fill="#EE3738"/>
<path d="M99.344 47.198C98.8867 47.198 98.4433 47.1093 98.014 46.932C97.5847 46.7547 97.202 46.5073 96.866 46.19C96.53 45.8727 96.2593 45.5087 96.054 45.098C95.158 45.07 94.3693 44.8413 93.688 44.412C93.016 43.9827 92.4887 43.418 92.106 42.718C91.7327 42.0087 91.546 41.2247 91.546 40.366C91.546 39.7033 91.658 39.0873 91.882 38.518C92.106 37.9487 92.4233 37.4447 92.834 37.006C93.254 36.5673 93.7533 36.2267 94.332 35.984C94.9107 35.7413 95.55 35.62 96.25 35.62C96.95 35.62 97.5893 35.7413 98.168 35.984C98.7467 36.2267 99.2413 36.5673 99.652 37.006C100.072 37.4447 100.394 37.9487 100.618 38.518C100.842 39.0873 100.954 39.7033 100.954 40.366C100.954 41.15 100.791 41.8733 100.464 42.536C100.147 43.1893 99.6987 43.7353 99.12 44.174C98.5507 44.6127 97.8833 44.8973 97.118 45.028C97.2113 45.196 97.3513 45.378 97.538 45.574C97.7247 45.7793 97.9673 45.952 98.266 46.092C98.5647 46.232 98.9287 46.302 99.358 46.302C99.694 46.302 99.9973 46.246 100.268 46.134C100.548 46.022 100.809 45.868 101.052 45.672L101.612 46.428C101.285 46.6893 100.935 46.8807 100.562 47.002C100.198 47.1327 99.792 47.198 99.344 47.198ZM96.25 44.09C97.006 44.09 97.6547 43.9267 98.196 43.6C98.7467 43.264 99.1667 42.816 99.456 42.256C99.7547 41.6867 99.904 41.0567 99.904 40.366C99.904 39.666 99.7547 39.036 99.456 38.476C99.1667 37.916 98.7467 37.4727 98.196 37.146C97.6547 36.81 97.006 36.642 96.25 36.642C95.5033 36.642 94.8547 36.81 94.304 37.146C93.7533 37.4727 93.3287 37.916 93.03 38.476C92.7407 39.036 92.596 39.666 92.596 40.366C92.596 41.0567 92.7407 41.6867 93.03 42.256C93.3287 42.816 93.7533 43.264 94.304 43.6C94.8547 43.9267 95.5033 44.09 96.25 44.09Z" fill="black"/>
<path d="M105.14 45.112C104.664 45.112 104.211 45 103.782 44.776C103.353 44.5427 103.003 44.202 102.732 43.754C102.471 43.2967 102.34 42.7367 102.34 42.074V38H103.39V42.046C103.39 42.6807 103.572 43.194 103.936 43.586C104.309 43.9687 104.781 44.16 105.35 44.16C105.742 44.16 106.097 44.0713 106.414 43.894C106.731 43.7073 106.983 43.4553 107.17 43.138C107.366 42.8207 107.464 42.452 107.464 42.032V38H108.514V45H107.464V43.908C107.212 44.244 106.904 44.5287 106.54 44.762C106.176 44.9953 105.709 45.112 105.14 45.112Z" fill="black"/>
<path d="M113.294 45.112C112.612 45.112 112.015 44.9533 111.502 44.636C110.998 44.3093 110.606 43.8707 110.326 43.32C110.046 42.7693 109.906 42.1627 109.906 41.5C109.906 40.828 110.046 40.2213 110.326 39.68C110.606 39.1293 110.998 38.6953 111.502 38.378C112.015 38.0513 112.612 37.888 113.294 37.888C113.872 37.888 114.367 38 114.778 38.224C115.198 38.448 115.538 38.7513 115.8 39.134V38H116.85V45H115.8V43.88C115.538 44.2533 115.198 44.552 114.778 44.776C114.367 45 113.872 45.112 113.294 45.112ZM113.434 44.16C113.956 44.16 114.395 44.0387 114.75 43.796C115.114 43.5533 115.389 43.2313 115.576 42.83C115.762 42.4193 115.856 41.976 115.856 41.5C115.856 41.0147 115.762 40.5713 115.576 40.17C115.389 39.7687 115.114 39.4467 114.75 39.204C114.395 38.9613 113.956 38.84 113.434 38.84C112.92 38.84 112.477 38.9613 112.104 39.204C111.73 39.4467 111.446 39.7687 111.25 40.17C111.054 40.5713 110.956 41.0147 110.956 41.5C110.956 41.976 111.054 42.4193 111.25 42.83C111.446 43.2313 111.73 43.5533 112.104 43.796C112.477 44.0387 112.92 44.16 113.434 44.16Z" fill="black"/>
<path d="M118.666 45V35.2H119.716V45H118.666Z" fill="black"/>
<path d="M121.495 36.824V35.452H122.629V36.824H121.495ZM121.537 45V38H122.587V45H121.537Z" fill="black"/>
<path d="M125.164 45V38.924H123.736V38H125.164V35.494H126.214V38H127.824V38.924H126.214V45H125.164Z" fill="black"/>
<path d="M129.702 47.772L130.976 44.902L128.12 38H129.282L131.536 43.74L133.832 38H134.98L130.836 47.772H129.702Z" fill="black"/>
<path d="M139.138 45V35.732H145.956V36.74H140.188V39.848H145.34V40.87H140.188V43.992H145.956V45H139.138Z" fill="black"/>
<path d="M147.431 45V38H148.481V39.092C148.733 38.756 149.041 38.4713 149.405 38.238C149.769 38.0047 150.236 37.888 150.805 37.888C151.291 37.888 151.743 38.0047 152.163 38.238C152.593 38.462 152.938 38.8027 153.199 39.26C153.47 39.708 153.605 40.2633 153.605 40.926V45H152.555V40.954C152.555 40.3193 152.373 39.8107 152.009 39.428C151.645 39.036 151.174 38.84 150.595 38.84C150.203 38.84 149.849 38.9287 149.531 39.106C149.214 39.2833 148.957 39.5353 148.761 39.862C148.575 40.1793 148.481 40.548 148.481 40.968V45H147.431Z" fill="black"/>
<path d="M157.909 45.112C157.265 45.112 156.719 45.0047 156.271 44.79C155.833 44.5753 155.497 44.2953 155.263 43.95C155.03 43.5953 154.899 43.2127 154.871 42.802H155.963C155.991 43.0353 156.071 43.264 156.201 43.488C156.341 43.7027 156.551 43.88 156.831 44.02C157.111 44.1507 157.475 44.216 157.923 44.216C158.063 44.216 158.236 44.202 158.441 44.174C158.647 44.146 158.843 44.0947 159.029 44.02C159.225 43.9453 159.389 43.8333 159.519 43.684C159.65 43.5347 159.715 43.3433 159.715 43.11C159.715 42.8207 159.603 42.5967 159.379 42.438C159.155 42.2793 158.866 42.158 158.511 42.074C158.157 41.9807 157.779 41.892 157.377 41.808C156.985 41.724 156.612 41.6167 156.257 41.486C155.903 41.346 155.613 41.1547 155.389 40.912C155.165 40.66 155.053 40.3193 155.053 39.89C155.053 39.2553 155.282 38.7653 155.739 38.42C156.206 38.0653 156.892 37.888 157.797 37.888C158.413 37.888 158.913 37.986 159.295 38.182C159.687 38.3687 159.981 38.6113 160.177 38.91C160.383 39.2087 160.504 39.5307 160.541 39.876H159.477C159.44 39.5773 159.291 39.3207 159.029 39.106C158.777 38.8913 158.357 38.784 157.769 38.784C156.659 38.784 156.103 39.12 156.103 39.792C156.103 40.072 156.215 40.2867 156.439 40.436C156.663 40.5853 156.953 40.7067 157.307 40.8C157.662 40.884 158.035 40.968 158.427 41.052C158.829 41.1267 159.207 41.234 159.561 41.374C159.916 41.514 160.205 41.7147 160.429 41.976C160.653 42.228 160.765 42.5733 160.765 43.012C160.765 43.6933 160.504 44.216 159.981 44.58C159.468 44.9347 158.777 45.112 157.909 45.112Z" fill="black"/>
<path d="M164.845 45.112C164.369 45.112 163.916 45 163.487 44.776C163.058 44.5427 162.708 44.202 162.437 43.754C162.176 43.2967 162.045 42.7367 162.045 42.074V38H163.095V42.046C163.095 42.6807 163.277 43.194 163.641 43.586C164.014 43.9687 164.486 44.16 165.055 44.16C165.447 44.16 165.802 44.0713 166.119 43.894C166.436 43.7073 166.688 43.4553 166.875 43.138C167.071 42.8207 167.169 42.452 167.169 42.032V38H168.219V45H167.169V43.908C166.917 44.244 166.609 44.5287 166.245 44.762C165.881 44.9953 165.414 45.112 164.845 45.112Z" fill="black"/>
<path d="M170.045 45V38H171.095V39.722C171.132 39.6007 171.202 39.442 171.305 39.246C171.417 39.0407 171.575 38.8353 171.781 38.63C171.986 38.4247 172.243 38.252 172.551 38.112C172.868 37.9627 173.241 37.888 173.671 37.888H173.741V38.938H173.615C173.092 38.938 172.639 39.0827 172.257 39.372C171.883 39.652 171.594 40.0207 171.389 40.478C171.193 40.926 171.095 41.4067 171.095 41.92V45H170.045Z" fill="black"/>
<path d="M177.801 45.112C177.092 45.112 176.471 44.9533 175.939 44.636C175.407 44.3093 174.992 43.8707 174.693 43.32C174.404 42.7693 174.259 42.1627 174.259 41.5C174.259 40.828 174.399 40.2213 174.679 39.68C174.959 39.1293 175.361 38.6953 175.883 38.378C176.406 38.0513 177.022 37.888 177.731 37.888C178.45 37.888 179.066 38.0513 179.579 38.378C180.102 38.6953 180.503 39.1293 180.783 39.68C181.063 40.2213 181.203 40.828 181.203 41.5V41.92H175.337C175.393 42.3307 175.524 42.7087 175.729 43.054C175.944 43.39 176.229 43.6607 176.583 43.866C176.938 44.062 177.349 44.16 177.815 44.16C178.31 44.16 178.725 44.0527 179.061 43.838C179.397 43.614 179.659 43.3293 179.845 42.984H180.993C180.751 43.6093 180.363 44.1227 179.831 44.524C179.309 44.916 178.632 45.112 177.801 45.112ZM175.351 40.94H180.111C180.018 40.3427 179.766 39.8433 179.355 39.442C178.945 39.0407 178.403 38.84 177.731 38.84C177.059 38.84 176.518 39.0407 176.107 39.442C175.706 39.8433 175.454 40.3427 175.351 40.94Z" fill="black"/>
<path d="M185.44 45.112C184.759 45.112 184.162 44.9533 183.648 44.636C183.144 44.3093 182.752 43.8707 182.472 43.32C182.192 42.7693 182.052 42.1627 182.052 41.5C182.052 40.828 182.192 40.2213 182.472 39.68C182.752 39.1293 183.144 38.6953 183.648 38.378C184.162 38.0513 184.759 37.888 185.44 37.888C186.019 37.888 186.514 38 186.924 38.224C187.344 38.448 187.685 38.7513 187.946 39.134V35.2H188.996V45H187.946V43.88C187.685 44.2533 187.344 44.552 186.924 44.776C186.514 45 186.019 45.112 185.44 45.112ZM185.58 44.16C186.103 44.16 186.542 44.0387 186.896 43.796C187.26 43.5533 187.536 43.2313 187.722 42.83C187.909 42.4193 188.002 41.976 188.002 41.5C188.002 41.0147 187.909 40.5713 187.722 40.17C187.536 39.7687 187.26 39.4467 186.896 39.204C186.542 38.9613 186.103 38.84 185.58 38.84C185.067 38.84 184.624 38.9613 184.25 39.204C183.877 39.4467 183.592 39.7687 183.396 40.17C183.2 40.5713 183.102 41.0147 183.102 41.5C183.102 41.976 183.2 42.4193 183.396 42.83C183.592 43.2313 183.877 43.5533 184.25 43.796C184.624 44.0387 185.067 44.16 185.58 44.16Z" fill="black"/>
<path fill-rule="evenodd" clip-rule="evenodd" d="M28.5467 11.4423C28.8341 11.4744 29.1135 11.5754 29.3685 11.7395C29.6236 11.9036 29.8492 12.1274 30.0324 12.398L41.6081 26.4423C43.4878 28.7219 42.4026 30.5236 39.9286 30.2808H28.5467L35.3745 38.8038H49.9152C54.3659 39.0388 57.9316 34.0018 53.4745 28.8378L33.1976 4.36065C31.5104 2.32233 30.0259 1 28.5467 1C27.0674 1 25.5752 2.32389 23.8957 4.36065L3.62273 28.8409C-0.83443 34.0112 2.7313 39.0247 7.182 38.807H21.7098L28.5376 30.2839H17.1906C14.7165 30.5268 13.6313 28.7172 15.5111 26.4454L27.0868 12.4012C27.2702 12.1309 27.4959 11.9073 27.7509 11.7433C28.0059 11.5793 28.2851 11.4781 28.5725 11.4454" fill="#2957A4"/>
<path fill-rule="evenodd" clip-rule="evenodd" d="M76.6267 11.6635C77.8623 12.1002 78.8078 12.7346 79.4548 13.5627C80.1065 14.3902 80.4326 15.3857 80.4326 16.5437C80.4326 17.5337 80.2831 18.3974 79.9841 19.1336C79.6902 19.865 79.238 20.4693 78.6364 20.9418C78.0295 21.4138 77.319 21.7592 76.5001 21.9777C75.6812 22.1959 74.6408 22.3027 73.3781 22.3027H65.2109V21.3224C65.5412 21.2207 65.7991 21.1144 65.9892 21.0026C66.1789 20.8856 66.3195 20.7283 66.4096 20.525C66.505 20.3222 66.5638 20.0633 66.591 19.7532C66.6184 19.4385 66.6315 19.0422 66.6315 18.5701V5.74167C66.6315 5.27436 66.6185 4.88353 66.5956 4.56886C66.5774 4.24856 66.5186 3.99475 66.4236 3.79142C66.3331 3.59374 66.1929 3.43595 66.0028 3.3092C65.8126 3.18718 65.5501 3.07576 65.2109 2.9741V1.99384H73.8939C74.8852 1.99384 75.6947 2.04955 76.3193 2.15635C77.1522 2.30345 77.8712 2.56239 78.4822 2.92813C79.0297 3.25811 79.4595 3.72552 79.7673 4.32986C80.0747 4.93409 80.2331 5.6554 80.2331 6.48845C80.2331 8.72786 79.0297 10.4089 76.6267 11.5312V11.6635ZM72.505 10.8912C73.3874 10.8912 74.0793 10.7491 74.5866 10.4596C75.0883 10.1704 75.4686 9.76383 75.7312 9.23053C75.9932 8.70236 76.1203 7.97139 76.1203 7.03657C76.1203 6.2142 75.9801 5.56394 75.6994 5.08172C75.4145 4.59899 75.0118 4.2537 74.4913 4.04574C73.971 3.83738 73.3193 3.73571 72.541 3.73571C71.9258 3.73571 71.3236 3.76129 70.7402 3.80674V10.8912H72.505ZM70.7402 20.5148C71.2605 20.5455 71.8622 20.5608 72.541 20.5608C73.3828 20.5608 74.0751 20.4438 74.618 20.2104C75.1607 19.9769 75.5817 19.5703 75.8848 18.9915C76.1834 18.4124 76.3329 17.6154 76.3329 16.6046C76.3329 15.8884 76.2558 15.279 76.0974 14.7662C75.9344 14.2532 75.6994 13.8421 75.378 13.532C75.0612 13.2174 74.6811 12.9937 74.2377 12.8465C73.7991 12.7045 73.2469 12.633 72.5816 12.633H70.7402V20.5148ZM88.4232 18.5701C88.4232 18.9154 88.4323 19.2352 88.4497 19.5351C88.468 19.8344 88.5002 20.0781 88.5539 20.2661C88.6081 20.454 88.6852 20.6113 88.7847 20.7385C88.8888 20.8703 89.0295 20.9821 89.2061 21.0736C89.3826 21.1701 89.5995 21.2514 89.8526 21.3224V22.3027H82.8939V21.3224C83.2237 21.2207 83.4816 21.1144 83.6722 21.0026C83.8619 20.8856 84.002 20.7283 84.0927 20.525C84.188 20.3222 84.2464 20.0633 84.2739 19.7532C84.3011 19.4385 84.3141 19.0422 84.3141 18.5701V5.72636C84.3141 5.25441 84.301 4.85804 84.2781 4.55355C84.2599 4.24353 84.2015 3.98961 84.1062 3.78629C84.0156 3.58347 83.8754 3.42104 83.6858 3.30406C83.4956 3.18205 83.2331 3.07576 82.8939 2.9741V1.99384H89.8526V2.9741C89.4905 3.08554 89.2243 3.20249 89.0519 3.32451C88.88 3.45126 88.7487 3.59877 88.6628 3.78165C88.5721 3.95898 88.5091 4.19292 88.4773 4.47736C88.4413 4.76653 88.4232 5.18801 88.4232 5.74167V18.5701ZM94.0424 17.29C94.2643 18.4685 94.6353 19.3471 95.151 19.931C95.6672 20.5097 96.4273 20.7993 97.427 20.7993C97.9473 20.7993 98.4136 20.7027 98.8298 20.5051C99.2465 20.3017 99.581 19.982 99.83 19.5448C100.083 19.1034 100.21 18.5497 100.21 17.8841C100.21 17.2697 100.106 16.7368 99.902 16.2848C99.6987 15.8327 99.3727 15.4062 98.9252 14.9945C98.4725 14.5883 97.8437 14.1567 97.0425 13.7047C96.3502 13.3139 95.7303 12.9125 95.1692 12.4962C94.6129 12.0798 94.1378 11.6226 93.7486 11.12C93.3549 10.622 93.047 10.0739 92.8302 9.47931C92.6177 8.88012 92.5088 8.21502 92.5088 7.46822C92.5088 6.24947 92.776 5.21348 93.3142 4.36048C93.8528 3.50738 94.6353 2.8571 95.6537 2.41528C96.6762 1.9785 97.8572 1.75534 99.2007 1.75534C99.9884 1.75534 100.74 1.80079 101.454 1.89731C102.169 1.9888 102.988 2.15634 103.907 2.39483V6.71175H102.092C101.925 5.92454 101.707 5.30498 101.45 4.84271C101.187 4.38084 100.861 4.04069 100.472 3.82205C100.083 3.60391 99.5946 3.49722 99.0017 3.49722C98.4995 3.49722 98.0469 3.59374 97.6489 3.79142C97.2504 3.99475 96.9383 4.28947 96.7076 4.6802C96.4814 5.07154 96.3642 5.54346 96.3642 6.10225C96.3642 6.67596 96.4633 7.174 96.6627 7.59536C96.8612 8.01683 97.1967 8.42803 97.6624 8.82954C98.1333 9.23055 98.8116 9.6928 99.7034 10.2057C100.794 10.8405 101.649 11.4653 102.269 12.0747C102.893 12.6841 103.355 13.3492 103.648 14.0653C103.943 14.7866 104.092 15.6243 104.092 16.574C104.092 17.7932 103.843 18.8542 103.336 19.7532C102.834 20.6471 102.101 21.3377 101.138 21.8204C100.174 22.3027 99.0605 22.5412 97.7984 22.5412C96.8935 22.5412 95.9568 22.4855 94.9791 22.3686C94.0019 22.2571 93.088 22.0892 92.2286 21.871V17.29H94.0424ZM125.458 2.45611V6.76737H123.657C123.444 5.65029 123.109 4.82276 122.648 4.2945C122.191 3.7613 121.589 3.49722 120.847 3.49722C119.449 3.49722 118.395 4.24855 117.68 5.75194C116.96 7.25522 116.603 9.48436 116.603 12.4404C116.603 15.1876 116.933 17.265 117.585 18.6815C118.241 20.0934 119.2 20.7993 120.463 20.7993C121.11 20.7993 121.635 20.6778 122.042 20.4336C122.445 20.1899 122.77 19.8293 123.015 19.3419C123.259 18.8542 123.467 18.1738 123.643 17.29H125.458V21.7948C124.489 22.0539 123.599 22.2418 122.797 22.3634C121.992 22.4804 121.155 22.5412 120.291 22.5412C118.454 22.5412 116.951 22.1708 115.789 21.4241C114.626 20.6828 113.771 19.555 113.218 18.0568C112.666 16.5539 112.39 14.6492 112.39 12.3489C112.39 10.1955 112.716 8.32687 113.363 6.7321C114.015 5.14247 114.969 3.91354 116.232 3.05027C117.499 2.18699 119.01 1.75534 120.766 1.75534C121.662 1.75534 122.467 1.81106 123.191 1.91776C123.92 2.0296 124.675 2.20735 125.458 2.45611ZM139.535 19.5958C138.634 20.6675 137.743 21.4241 136.86 21.871C135.974 22.318 134.96 22.5412 133.811 22.5412C131.752 22.5412 130.2 21.9067 129.164 20.642C128.123 19.3772 127.608 17.5035 127.608 15.0098C127.608 13.4054 127.874 12.0186 128.408 10.8559C128.942 9.68769 129.702 8.80395 130.68 8.20486C131.662 7.60566 132.802 7.30581 134.101 7.30581C134.906 7.30581 135.612 7.40748 136.213 7.61584C136.82 7.8238 137.34 8.11336 137.775 8.48928C138.204 8.86016 138.566 9.3066 138.847 9.83476C139.182 10.4596 139.435 11.1756 139.603 11.9782C139.779 12.801 139.874 13.7961 139.879 14.9694H131.476C131.485 16.7619 131.77 18.0823 132.331 18.9307C132.893 19.7787 133.748 20.2052 134.897 20.2052C135.566 20.2052 136.173 20.0633 136.711 19.7787C137.25 19.4993 137.833 19.0018 138.462 18.2856L139.535 19.5958ZM135.956 13.3593C135.92 11.8407 135.743 10.7134 135.426 9.96707C135.11 9.22541 134.598 8.85503 133.888 8.85503C133.209 8.85503 132.666 9.24072 132.263 10.0126C131.865 10.7849 131.621 11.902 131.544 13.3593H135.956ZM146.897 9.67235L147.069 9.71315C147.711 8.86015 148.376 8.24565 149.055 7.86973C149.738 7.49381 150.476 7.30581 151.272 7.30581C151.811 7.30581 152.376 7.37219 152.969 7.49884V11.6073H150.566C150.417 11.0285 150.222 10.5867 149.977 10.2817C149.734 9.9722 149.408 9.81997 149.005 9.81997C148.81 9.81997 148.593 9.88586 148.358 10.0228C148.127 10.1551 147.91 10.343 147.711 10.5867C147.512 10.8303 147.372 11.0791 147.286 11.3279C147.204 11.5818 147.146 11.8361 147.123 12.0951C147.095 12.3541 147.082 12.7398 147.082 13.2578V18.0011C147.082 18.9456 147.113 19.606 147.172 19.982C147.236 20.3574 147.358 20.6522 147.544 20.8653C147.729 21.0787 148.046 21.2309 148.485 21.3224V22.3027H141.95V21.3224C142.376 21.1906 142.67 21.023 142.833 20.8146C142.996 20.6062 143.105 20.3222 143.164 19.9667C143.222 19.6111 143.25 18.9609 143.25 18.0164V11.902C143.25 11.1706 143.241 10.627 143.218 10.2715C143.195 9.92111 143.141 9.6371 143.06 9.4236C142.974 9.2106 142.847 9.0374 142.675 8.90561C142.503 8.76868 142.204 8.6518 141.779 8.55517V7.54478L145.412 7.42277H147.082L146.897 9.67235ZM163.548 20.5148C162.769 21.2615 162.064 21.7847 161.425 22.0891C160.792 22.3889 160.118 22.5412 159.412 22.5412C158.095 22.5412 157.109 22.1401 156.461 21.3429C155.81 20.5455 155.489 19.3369 155.489 17.7217V9.40315H153.828V8.37745C154.371 8.27578 154.765 8.12868 155.023 7.93049C155.281 7.7323 155.48 7.46821 155.62 7.13309C155.76 6.80312 155.874 6.36645 155.959 5.83314C156.041 5.2947 156.105 4.62961 156.149 3.82205H159.317V7.54478H163.095V9.40315H159.317V16.1121C159.317 17.2344 159.367 18.0619 159.457 18.5952C159.552 19.1336 159.706 19.53 159.928 19.7787C160.15 20.0326 160.421 20.1593 160.751 20.1593C160.996 20.1593 161.217 20.1342 161.412 20.0832C161.606 20.0376 161.815 19.9463 162.028 19.8191C162.244 19.6872 162.475 19.5045 162.711 19.2659L163.548 20.5148ZM169.416 1.60774V5.2544H165.788V1.60774H169.416ZM164.38 21.3224C164.815 21.1906 165.113 21.023 165.276 20.8146C165.439 20.6062 165.548 20.3222 165.606 19.9667C165.665 19.6111 165.692 18.9609 165.692 18.0164V11.0996C165.692 10.6122 165.674 10.221 165.634 9.92114C165.593 9.62693 165.52 9.38783 165.407 9.2106C165.299 9.03277 165.15 8.89544 164.959 8.79891C164.769 8.70743 164.52 8.62621 164.222 8.55517V7.54478L167.869 7.42277H169.525V18.0011C169.525 18.5599 169.53 18.9865 169.543 19.291C169.557 19.5907 169.575 19.8242 169.602 19.9867C169.629 20.1546 169.67 20.2967 169.715 20.4285C169.765 20.5556 169.828 20.6777 169.91 20.7839C169.986 20.8959 170.104 20.9924 170.253 21.0838C170.403 21.1701 170.602 21.2514 170.851 21.3224V22.3027H164.38V21.3224ZM172.905 21.3224C173.321 21.1803 173.611 21.0281 173.774 20.8601C173.937 20.6926 174.054 20.454 174.127 20.1546C174.195 19.8497 174.231 19.3216 174.231 18.5701V9.40315H172.615V8.37745C173.027 8.30641 173.317 8.23032 173.484 8.14397C173.647 8.06277 173.782 7.9458 173.887 7.80384C173.991 7.66127 174.077 7.47336 174.14 7.24505C174.199 7.01663 174.244 6.72705 174.272 6.36644C174.412 4.58366 175.005 3.23313 176.041 2.31363C177.082 1.39473 178.547 0.9375 180.448 0.9375C180.882 0.9375 181.371 0.98304 181.918 1.06929V3.94418H180.434C180.331 3.04 179.991 2.58799 179.416 2.58799C179.059 2.58799 178.783 2.74024 178.588 3.04513C178.389 3.34498 178.249 3.77147 178.176 4.31959C178.099 4.87334 178.063 5.56906 178.063 6.41189V7.54478H180.62V9.40315H178.063V18.5701C178.063 19.3113 178.099 19.8395 178.167 20.1444C178.24 20.454 178.367 20.6977 178.547 20.8755C178.729 21.0532 179.05 21.2008 179.507 21.3224V22.3027H172.905V21.3224ZM186.809 1.60774V5.2544H183.181V1.60774H186.809ZM181.774 21.3224C182.208 21.1906 182.507 21.023 182.67 20.8146C182.832 20.6062 182.941 20.3222 183 19.9667C183.059 19.6111 183.086 18.9609 183.086 18.0164V11.0996C183.086 10.6122 183.068 10.221 183.026 9.92114C182.986 9.62693 182.914 9.38783 182.8 9.2106C182.692 9.03277 182.543 8.89544 182.353 8.79891C182.163 8.70743 181.914 8.62621 181.615 8.55517V7.54478L185.262 7.42277H186.918V18.0011C186.918 18.5599 186.923 18.9865 186.936 19.291C186.95 19.5907 186.968 19.8242 186.995 19.9867C187.022 20.1546 187.063 20.2967 187.108 20.4285C187.158 20.5556 187.221 20.6777 187.303 20.7839C187.38 20.8959 187.497 20.9924 187.647 21.0838C187.796 21.1701 187.995 21.2514 188.244 21.3224V22.3027H181.774V21.3224ZM202.321 19.5958C201.42 20.6675 200.529 21.4241 199.647 21.871C198.76 22.318 197.746 22.5412 196.597 22.5412C194.538 22.5412 192.986 21.9067 191.95 20.642C190.909 19.3772 190.394 17.5035 190.394 15.0098C190.394 13.4054 190.66 12.0186 191.194 10.8559C191.728 9.68769 192.489 8.80395 193.466 8.20486C194.448 7.60566 195.588 7.30581 196.886 7.30581C197.692 7.30581 198.398 7.40748 199 7.61584C199.606 7.8238 200.126 8.11336 200.56 8.48928C200.991 8.86016 201.353 9.3066 201.633 9.83476C201.968 10.4596 202.221 11.1756 202.389 11.9782C202.565 12.801 202.66 13.7961 202.664 14.9694H194.262C194.271 16.7619 194.556 18.0823 195.117 18.9307C195.679 19.7787 196.534 20.2052 197.683 20.2052C198.352 20.2052 198.959 20.0633 199.497 19.7787C200.036 19.4993 200.619 19.0018 201.248 18.2856L202.321 19.5958ZM198.742 13.3593C198.705 11.8407 198.529 10.7134 198.212 9.96707C197.895 9.22541 197.384 8.85503 196.674 8.85503C195.995 8.85503 195.452 9.24072 195.05 10.0126C194.651 10.7849 194.407 11.902 194.33 13.3593H198.742ZM217.542 17.9608C217.542 18.7121 217.551 19.2607 217.574 19.6111C217.596 19.9564 217.646 20.2358 217.728 20.4438C217.809 20.6522 217.936 20.8197 218.112 20.9567C218.289 21.0889 218.587 21.2059 218.999 21.3071V22.3027L215.393 22.4345H213.791L213.909 20.2916L213.709 20.2814C213.076 21.0026 212.406 21.561 211.705 21.9522C210.999 22.3435 210.325 22.5412 209.682 22.5412C208.072 22.5412 206.868 21.9216 206.067 20.6828C205.271 19.4384 204.868 17.5746 204.868 15.0859C204.868 13.4002 205.113 11.9782 205.596 10.8252C206.085 9.66721 206.81 8.79378 207.764 8.19972C208.723 7.60052 209.882 7.30581 211.234 7.30581C211.619 7.30581 212.004 7.33129 212.379 7.38701C212.755 7.44313 213.198 7.54944 213.709 7.70723V6.35113C213.709 5.28966 213.696 4.53824 213.673 4.10146C213.646 3.65964 213.587 3.31939 213.506 3.08553C213.42 2.85208 213.298 2.67425 213.126 2.54246C212.959 2.4153 212.655 2.30345 212.212 2.20229V1.20673L215.886 0.998366H217.542V17.9608ZM213.709 12.4251C213.709 11.2114 213.529 10.3175 213.166 9.72847C212.805 9.14418 212.248 8.85503 211.497 8.85503C210.95 8.85503 210.479 9.07316 210.085 9.51507C209.692 9.95689 209.397 10.5918 209.199 11.4244C209 12.2576 208.9 13.2475 208.9 14.3851C208.9 16.3405 209.09 17.7978 209.47 18.7627C209.85 19.7226 210.443 20.2052 211.244 20.2052C211.623 20.2052 212.004 20.0985 212.379 19.8854C212.755 19.6719 213.072 19.3419 213.325 18.9053C213.583 18.4633 213.709 17.9556 213.709 17.3764V12.4251Z" fill="black"/>
</svg>
