<svg width="20" height="20" viewBox="0 0 20 20" fill="none" xmlns="http://www.w3.org/2000/svg">
<path d="M10 20C4.477 20 0 15.523 0 10C0 4.477 4.477 0 10 0C15.523 0 20 4.477 20 10C20 15.523 15.523 20 10 20Z" fill="url(#paint0_linear_420_40912)"/>
<path d="M7.83284 6.1875C7.70023 6.1875 7.57305 6.24018 7.47929 6.33395L4.35429 9.45895C4.15902 9.65421 4.15902 9.97079 4.35429 10.1661L9.64718 15.4589C9.84244 15.6542 10.159 15.6542 10.3543 15.4589L15.6472 10.1661C15.8424 9.97079 15.8424 9.65421 15.6472 9.45895L12.5222 6.33395C12.4284 6.24018 12.3012 6.1875 12.1686 6.1875H7.83284Z" fill="white"/>
<defs>
<linearGradient id="paint0_linear_420_40912" x1="10" y1="0" x2="10" y2="20" gradientUnits="userSpaceOnUse">
<stop stop-color="#D43E2A"/>
<stop offset="1" stop-color="#EF8576"/>
</linearGradient>
</defs>
</svg>
