<svg width="38" height="38" viewBox="0 0 38 38" fill="none" xmlns="http://www.w3.org/2000/svg">
<mask id="mask0_1_9798" style="mask-type:alpha" maskUnits="userSpaceOnUse" x="0" y="1" width="37" height="36">
<circle cx="18.5" cy="18.9999" r="18" fill="#F4ABA4"/>
</mask>
<g mask="url(#mask0_1_9798)">
<circle cx="18.5" cy="18.9997" r="18" fill="white"/>
<path d="M18.736 9.32787C18.4989 9.54224 18.2501 9.74323 17.9908 9.92994C17.5421 10.2317 17.0378 10.44 16.5078 10.5456C16.2775 10.5908 16.0366 10.6105 15.5564 10.6482C14.3505 10.7448 13.7468 10.793 13.2439 10.9711C12.669 11.1746 12.1468 11.5044 11.7156 11.9366C11.2845 12.3687 10.9553 12.8921 10.7523 13.4684C10.5747 13.9723 10.5265 14.5774 10.4302 15.7861C10.4137 16.1056 10.3796 16.424 10.3278 16.7397C10.2224 17.2709 10.0146 17.7763 9.71355 18.226C9.58257 18.4222 9.426 18.6063 9.11286 18.9729C8.32849 19.8964 7.93556 20.3581 7.70522 20.841C7.17378 21.9576 7.17378 23.2552 7.70522 24.3719C7.93556 24.8547 8.32849 25.3164 9.11286 26.2399C9.426 26.6066 9.58257 26.7907 9.71355 26.9868C10.0146 27.4365 10.2224 27.942 10.3278 28.4731C10.373 28.704 10.3925 28.9454 10.4302 29.4267C10.5265 30.6354 10.5747 31.2405 10.7523 31.7445C10.9553 32.3207 11.2845 32.8441 11.7156 33.2762C12.1468 33.7084 12.669 34.0383 13.2439 34.2417C13.7468 34.4198 14.3505 34.4681 15.5564 34.5646C16.0366 34.6024 16.2775 34.622 16.5078 34.6672C17.0378 34.7729 17.5421 34.9826 17.9908 35.2829C18.1865 35.4142 18.3701 35.5711 18.736 35.8849C19.6573 36.6711 20.118 37.0649 20.5998 37.2958C21.7138 37.8284 23.0086 37.8284 24.1226 37.2958C24.6044 37.0649 25.0651 36.6711 25.9864 35.8849C26.3523 35.5711 26.5359 35.4142 26.7317 35.2829C27.1803 34.9811 27.6846 34.7729 28.2146 34.6672C28.4449 34.622 28.6858 34.6024 29.166 34.5646C30.3719 34.4681 30.9756 34.4198 31.4785 34.2417C32.0534 34.0383 32.5756 33.7084 33.0068 33.2762C33.4379 32.8441 33.7671 32.3207 33.9701 31.7445C34.1477 31.2405 34.1959 30.6354 34.2922 29.4267C34.3299 28.9454 34.3495 28.704 34.3946 28.4731C34.5 27.942 34.7093 27.4365 35.0089 26.9868C35.1398 26.7907 35.2964 26.6066 35.6096 26.2399C36.3939 25.3164 36.7868 24.8547 37.0172 24.3719C37.5486 23.2552 37.5486 21.9576 37.0172 20.841C36.7868 20.3581 36.3939 19.8964 35.6096 18.9729C35.3953 18.7356 35.1947 18.4862 35.0089 18.226C34.708 17.7762 34.4993 17.271 34.3946 16.7397C34.3429 16.424 34.3087 16.1056 34.2922 15.7861C34.1959 14.5774 34.1477 13.9723 33.9701 13.4684C33.7671 12.8921 33.4379 12.3687 33.0068 11.9366C32.5756 11.5044 32.0534 11.1746 31.4785 10.9711C30.9756 10.793 30.3719 10.7448 29.166 10.6482C28.8472 10.6317 28.5296 10.5975 28.2146 10.5456C27.6845 10.4407 27.1805 10.2314 26.7317 9.92994C26.4723 9.74323 26.2235 9.54223 25.9864 9.32787C25.0651 8.54173 24.6044 8.1479 24.1226 7.91703C23.5726 7.65354 22.9708 7.51678 22.3612 7.51678C21.7516 7.51678 21.1498 7.65354 20.5998 7.91703C20.118 8.1479 19.6573 8.54173 18.736 9.32787Z" fill="url(#paint0_linear_1_9798)"/>
<path d="M26.9891 18.0386C27.0793 18.1286 27.1508 18.2355 27.1995 18.3532C27.2483 18.4708 27.2735 18.5969 27.2735 18.7243C27.2735 18.8517 27.2483 18.9778 27.1995 19.0955C27.1508 19.2132 27.0793 19.3201 26.9891 19.4101L19.2079 27.1732C19.0252 27.3556 18.7776 27.458 18.5195 27.458C18.2614 27.458 18.0139 27.3556 17.8312 27.1732C17.7411 27.0832 17.6696 26.9763 17.6208 26.8586C17.572 26.741 17.5469 26.6148 17.5469 26.4875C17.5469 26.3601 17.572 26.234 17.6208 26.1163C17.6696 25.9986 17.7411 25.8917 17.8312 25.8017L25.6138 18.0386C25.7964 17.8566 26.0436 17.7545 26.3014 17.7545C26.5592 17.7545 26.8065 17.8566 26.9891 18.0386ZM25.6539 27.1344C25.8286 27.1422 26.0032 27.1145 26.167 27.053C26.3308 26.9915 26.4804 26.8975 26.6069 26.7766C26.7333 26.6557 26.8339 26.5104 26.9027 26.3495C26.9714 26.1886 27.0069 26.0155 27.0069 25.8405C27.0069 25.6656 26.9714 25.4924 26.9027 25.3316C26.8339 25.1707 26.7333 25.0254 26.6069 24.9045C26.4804 24.7836 26.3308 24.6895 26.167 24.628C26.0032 24.5665 25.8286 24.5389 25.6539 24.5467C25.4791 24.5389 25.3045 24.5665 25.1407 24.628C24.9769 24.6895 24.8273 24.7836 24.7009 24.9045C24.5744 25.0254 24.4738 25.1707 24.405 25.3316C24.3363 25.4924 24.3008 25.6656 24.3008 25.8405C24.3008 26.0155 24.3363 26.1886 24.405 26.3495C24.4738 26.5104 24.5744 26.6557 24.7009 26.7766C24.8273 26.8975 24.9769 26.9915 25.1407 27.053C25.3045 27.1145 25.4791 27.1422 25.6539 27.1344ZM19.1678 20.6651C19.3425 20.6729 19.5171 20.6453 19.6809 20.5838C19.8447 20.5223 19.9943 20.4282 20.1207 20.3073C20.2472 20.1864 20.3478 20.0411 20.4166 19.8802C20.4853 19.7194 20.5208 19.5462 20.5208 19.3713C20.5208 19.1963 20.4853 19.0232 20.4166 18.8623C20.3478 18.7014 20.2472 18.5561 20.1207 18.4352C19.9943 18.3143 19.8447 18.2202 19.6809 18.1588C19.5171 18.0973 19.3425 18.0696 19.1678 18.0774C18.993 18.0696 18.8184 18.0973 18.6546 18.1588C18.4908 18.2202 18.3412 18.3143 18.2148 18.4352C18.0883 18.5561 17.9877 18.7014 17.9189 18.8623C17.8502 19.0232 17.8147 19.1963 17.8147 19.3713C17.8147 19.5462 17.8502 19.7194 17.9189 19.8802C17.9877 20.0411 18.0883 20.1864 18.2148 20.3073C18.3412 20.4282 18.4908 20.5223 18.6546 20.5838C18.8184 20.6453 18.993 20.6729 19.1678 20.6651Z" fill="white"/>
</g>
<path d="M18.582 37.2495C28.6612 37.2495 36.832 29.0788 36.832 18.9997C36.832 8.92056 28.6612 0.749817 18.582 0.749817C8.50284 0.749817 0.332031 8.92056 0.332031 18.9997C0.332031 29.0788 8.50284 37.2495 18.582 37.2495Z" stroke="#D14A61" stroke-width="0.5" stroke-linecap="round" stroke-linejoin="round"/>
<defs>
<linearGradient id="paint0_linear_1_9798" x1="8.61571" y1="24.7728" x2="38.4413" y2="24.4103" gradientUnits="userSpaceOnUse">
<stop stop-color="#EE3738"/>
<stop offset="0.570607" stop-color="#F98DAC"/>
<stop offset="1" stop-color="#FDD7E4"/>
</linearGradient>
</defs>
</svg>
