<svg width="24" height="24" viewBox="0 0 24 24" fill="none" xmlns="http://www.w3.org/2000/svg">
<path d="M11.9998 22C6.47676 22 1.99976 17.523 1.99976 12C1.99976 6.477 6.47676 2 11.9998 2C17.5228 2 21.9998 6.477 21.9998 12C21.9998 17.523 17.5228 22 11.9998 22Z" fill="url(#paint0_linear_1005_46520)"/>
<path fill-rule="evenodd" clip-rule="evenodd" d="M12.0005 18.25C15.4523 18.25 18.2505 15.4518 18.2505 12C18.2505 8.54822 15.4523 5.75 12.0005 5.75C8.54871 5.75 5.75049 8.54822 5.75049 12C5.75049 15.4518 8.54871 18.25 12.0005 18.25ZM12.0005 10.8703C12.432 10.8703 12.7817 11.2201 12.7817 11.6516V15.4016C12.7817 15.8331 12.432 16.1828 12.0005 16.1828C11.569 16.1828 11.2192 15.8331 11.2192 15.4016V11.6516C11.2192 11.2201 11.569 10.8703 12.0005 10.8703ZM12.8292 9.34868C12.8292 8.89061 12.4579 8.51927 11.9998 8.51927C11.5418 8.51927 11.1704 8.89061 11.1704 9.34868C11.1704 9.80676 11.5418 10.1781 11.9998 10.1781C12.4579 10.1781 12.8292 9.80676 12.8292 9.34868Z" fill="white"/>
<defs>
<linearGradient id="paint0_linear_1005_46520" x1="11.9998" y1="2" x2="11.9998" y2="22" gradientUnits="userSpaceOnUse">
<stop stop-color="#D14A61"/>
<stop offset="1" stop-color="#E392A0"/>
</linearGradient>
</defs>
</svg>
