<svg width="38" height="38" viewBox="0 0 38 38" fill="none" xmlns="http://www.w3.org/2000/svg">
<mask id="mask0_2023_49654" style="mask-type:alpha" maskUnits="userSpaceOnUse" x="1" y="1" width="36" height="36">
<circle cx="18.9999" cy="19" r="17.9999" fill="#F4ABA4"/>
</mask>
<g mask="url(#mask0_2023_49654)">
<circle cx="18.9999" cy="19" r="17.9999" fill="white"/>
<path d="M19.9174 32.3089H25.6118C30.9802 32.3089 33.6651 32.3089 35.3321 30.6404C37.0006 28.9734 37.0006 26.2885 37.0006 20.9201C37.0006 20.2908 36.9977 18.6309 36.9949 18.0729H8.52861C8.52576 18.6309 8.52861 20.2908 8.52861 20.9201C8.52861 26.2885 8.52861 28.9734 10.1956 30.6404C11.8641 32.3089 14.5504 32.3089 19.9174 32.3089Z" fill="url(#paint0_linear_2023_49654)"/>
<path d="M19.909 9.53094H25.6176C31.0003 9.53094 33.6923 9.53094 35.3636 11.1197C36.5679 12.2628 36.9053 13.9099 36.9993 16.6489V18.0725H8.52734V16.6489C8.6213 13.9085 8.95869 12.2643 10.1631 11.1197C11.8344 9.53094 14.5264 9.53094 19.909 9.53094Z" fill="#D14A61"/>
<path d="M36.9993 18.0002V16.8388H8.52734V18.0002H36.9993Z" fill="white"/>
<path fill-rule="evenodd" clip-rule="evenodd" d="M18.7946 15.1804C19.2032 14.1664 19.7949 13.0353 20.5208 12.134C21.0963 11.4195 21.807 10.7853 22.6388 10.5191C23.5176 10.238 24.4444 10.3957 25.3293 11.0999C26.0076 11.6397 26.2948 12.3958 26.2185 13.188C26.1445 13.9549 25.7376 14.715 25.1174 15.3646C24.069 16.4626 22.3387 17.3295 20.1378 17.5046L22.3901 20.2388C22.6039 20.4984 22.5669 20.8821 22.3073 21.096C22.0478 21.3098 21.664 21.2727 21.4502 21.0131L18.8867 17.9012L17.9014 19.2064C17.6988 19.4748 17.3169 19.5281 17.0485 19.3255C16.7801 19.1229 16.7268 18.741 16.9294 18.4726L17.6208 17.5569C15.3401 17.4739 13.7796 16.6262 12.9903 15.4961C12.5283 14.8346 12.3374 14.0757 12.4666 13.3667C12.5976 12.6477 13.0506 12.0307 13.7681 11.6797C14.5173 11.3132 15.2582 11.388 15.9085 11.7086C16.5337 12.0169 17.0787 12.5505 17.533 13.128C18.0286 13.7582 18.4565 14.4928 18.7946 15.1804ZM19.6737 16.3124C20.0256 15.2626 20.6625 13.8996 21.4693 12.8979C21.9789 12.265 22.5056 11.8404 23.0099 11.679C23.4673 11.5327 23.9754 11.5788 24.571 12.0528C24.914 12.3258 25.0447 12.673 25.0063 13.0711C24.9655 13.4945 24.7251 14.0119 24.2366 14.5236C23.369 15.4323 21.7972 16.231 19.6737 16.3124ZM17.991 16.3462C15.7862 16.3479 14.527 15.5696 13.9887 14.7988C13.6842 14.3628 13.6021 13.9284 13.6647 13.585C13.7254 13.2515 13.9287 12.9568 14.3033 12.7736C14.6607 12.5987 15.0014 12.6191 15.3699 12.8008C15.7635 12.9949 16.1746 13.3709 16.5758 13.8809C17.1627 14.6271 17.6562 15.5665 17.991 16.3462Z" fill="white"/>
<path d="M22.7224 25.8593C22.9226 25.6591 23.1942 25.5466 23.4773 25.5466H25.6127C25.8959 25.5466 26.1675 25.6591 26.3677 25.8593C26.5679 26.0595 26.6804 26.3311 26.6804 26.6143C26.6804 26.8974 26.5679 27.169 26.3677 27.3692C26.1675 27.5695 25.8959 27.682 25.6127 27.682H23.4773C23.1942 27.682 22.9226 27.5695 22.7224 27.3692C22.5221 27.169 22.4096 26.8974 22.4096 26.6143C22.4096 26.3311 22.5221 26.0595 22.7224 25.8593Z" fill="#D14A61"/>
<path d="M13.469 25.8593C13.6692 25.6591 13.9408 25.5466 14.2239 25.5466H19.9183C20.2015 25.5466 20.4731 25.6591 20.6733 25.8593C20.8735 26.0595 20.986 26.3311 20.986 26.6143C20.986 26.8974 20.8735 27.169 20.6733 27.3692C20.4731 27.5695 20.2015 27.682 19.9183 27.682H14.2239C13.9408 27.682 13.6692 27.5695 13.469 27.3692C13.2687 27.169 13.1562 26.8974 13.1562 26.6143C13.1562 26.3311 13.2687 26.0595 13.469 25.8593Z" fill="#D14A61"/>
</g>
<path d="M19 37.2498C29.0792 37.2498 37.25 29.0791 37.25 19C37.25 8.92086 29.0792 0.750122 19 0.750122C8.9208 0.750122 0.75 8.92086 0.75 19C0.75 29.0791 8.9208 37.2498 19 37.2498Z" stroke="#D14A61" stroke-width="0.5" stroke-linecap="round" stroke-linejoin="round"/>
<defs>
<linearGradient id="paint0_linear_2023_49654" x1="19.8573" y1="18.0729" x2="19.9558" y2="32.3085" gradientUnits="userSpaceOnUse">
<stop stop-color="#EE3738"/>
<stop offset="0.549832" stop-color="#F98DAC"/>
<stop offset="1" stop-color="#FDD7E4"/>
</linearGradient>
</defs>
</svg>
