<svg width="20" height="20" viewBox="0 0 20 20" fill="none" xmlns="http://www.w3.org/2000/svg">
<path d="M10 20C4.477 20 0 15.523 0 10C0 4.477 4.477 0 10 0C15.523 0 20 4.477 20 10C20 15.523 15.523 20 10 20Z" fill="url(#paint0_linear_420_40905)"/>
<path d="M6.63845 6.1164L4.21356 13.5747C4.10852 13.8977 4.34934 14.2293 4.68906 14.2293H15.3124C15.6521 14.2293 15.8929 13.8977 15.7879 13.5747L13.363 6.1164C13.296 5.91043 13.1041 5.771 12.8875 5.771H7.11395C6.89737 5.771 6.70542 5.91043 6.63845 6.1164Z" fill="white"/>
<defs>
<linearGradient id="paint0_linear_420_40905" x1="10" y1="0" x2="10" y2="20" gradientUnits="userSpaceOnUse">
<stop stop-color="#F7A200"/>
<stop offset="1" stop-color="#FFCA66"/>
</linearGradient>
</defs>
</svg>
