<svg width="20" height="20" viewBox="0 0 20 20" fill="none" xmlns="http://www.w3.org/2000/svg">
<g clip-path="url(#clip0_10614_120798)">
<mask id="mask0_10614_120798" style="mask-type:luminance" maskUnits="userSpaceOnUse" x="0" y="0" width="20" height="20">
<path d="M20 0H0V20H20V0Z" fill="white"/>
</mask>
<g mask="url(#mask0_10614_120798)">
<path d="M10 18.75C14.8325 18.75 18.75 14.8325 18.75 10C18.75 5.16751 14.8325 1.25 10 1.25C5.16751 1.25 1.25 5.16751 1.25 10C1.25 14.8325 5.16751 18.75 10 18.75Z" fill="url(#paint0_linear_10614_120798)"/>
<g filter="url(#filter0_i_10614_120798)">
<path d="M9.99878 18.269C14.5663 18.269 18.269 14.5663 18.269 9.99878C18.269 5.43124 14.5663 1.72852 9.99878 1.72852C5.43124 1.72852 1.72852 5.43124 1.72852 9.99878C1.72852 14.5663 5.43124 18.269 9.99878 18.269Z" fill="url(#paint1_linear_10614_120798)"/>
</g>
<g filter="url(#filter1_d_10614_120798)">
<path d="M10.0024 16.333C13.4987 16.333 16.333 13.4987 16.333 10.0024C16.333 6.50616 13.4987 3.67188 10.0024 3.67188C6.50616 3.67188 3.67188 6.50616 3.67188 10.0024C3.67188 13.4987 6.50616 16.333 10.0024 16.333Z" fill="url(#paint2_linear_10614_120798)"/>
</g>
<g filter="url(#filter2_i_10614_120798)">
<path d="M9.99825 15.7924C13.1983 15.7924 15.7924 13.1983 15.7924 9.99825C15.7924 6.79823 13.1983 4.2041 9.99825 4.2041C6.79823 4.2041 4.2041 6.79823 4.2041 9.99825C4.2041 13.1983 6.79823 15.7924 9.99825 15.7924Z" fill="url(#paint3_linear_10614_120798)"/>
</g>
</g>
</g>
<defs>
<filter id="filter0_i_10614_120798" x="1.72852" y="1.72852" width="16.54" height="16.5405" filterUnits="userSpaceOnUse" color-interpolation-filters="sRGB">
<feFlood flood-opacity="0" result="BackgroundImageFix"/>
<feBlend mode="normal" in="SourceGraphic" in2="BackgroundImageFix" result="shape"/>
<feColorMatrix in="SourceAlpha" type="matrix" values="0 0 0 0 0 0 0 0 0 0 0 0 0 0 0 0 0 0 127 0" result="hardAlpha"/>
<feOffset/>
<feGaussianBlur stdDeviation="0.5"/>
<feComposite in2="hardAlpha" operator="arithmetic" k2="-1" k3="1"/>
<feColorMatrix type="matrix" values="0 0 0 0 0.929167 0 0 0 0 0.552112 0 0 0 0 0.15099 0 0 0 1 0"/>
<feBlend mode="normal" in2="shape" result="effect1_innerShadow_10614_120798"/>
</filter>
<filter id="filter1_d_10614_120798" x="1.67188" y="2.67188" width="16.6611" height="16.6611" filterUnits="userSpaceOnUse" color-interpolation-filters="sRGB">
<feFlood flood-opacity="0" result="BackgroundImageFix"/>
<feColorMatrix in="SourceAlpha" type="matrix" values="0 0 0 0 0 0 0 0 0 0 0 0 0 0 0 0 0 0 127 0" result="hardAlpha"/>
<feOffset dy="1"/>
<feGaussianBlur stdDeviation="1"/>
<feComposite in2="hardAlpha" operator="out"/>
<feColorMatrix type="matrix" values="0 0 0 0 0.9125 0 0 0 0 0.556413 0 0 0 0 0.16349 0 0 0 1 0"/>
<feBlend mode="normal" in2="BackgroundImageFix" result="effect1_dropShadow_10614_120798"/>
<feBlend mode="normal" in="SourceGraphic" in2="effect1_dropShadow_10614_120798" result="shape"/>
</filter>
<filter id="filter2_i_10614_120798" x="4.2041" y="4.2041" width="11.5879" height="11.5884" filterUnits="userSpaceOnUse" color-interpolation-filters="sRGB">
<feFlood flood-opacity="0" result="BackgroundImageFix"/>
<feBlend mode="normal" in="SourceGraphic" in2="BackgroundImageFix" result="shape"/>
<feColorMatrix in="SourceAlpha" type="matrix" values="0 0 0 0 0 0 0 0 0 0 0 0 0 0 0 0 0 0 127 0" result="hardAlpha"/>
<feOffset/>
<feGaussianBlur stdDeviation="0.5"/>
<feComposite in2="hardAlpha" operator="arithmetic" k2="-1" k3="1"/>
<feColorMatrix type="matrix" values="0 0 0 0 0.929167 0 0 0 0 0.552112 0 0 0 0 0.15099 0 0 0 1 0"/>
<feBlend mode="normal" in2="shape" result="effect1_innerShadow_10614_120798"/>
</filter>
<linearGradient id="paint0_linear_10614_120798" x1="2.5" y1="15" x2="16.25" y2="2.5" gradientUnits="userSpaceOnUse">
<stop stop-color="#FC9E3A"/>
<stop offset="1" stop-color="#FCC67C"/>
</linearGradient>
<linearGradient id="paint1_linear_10614_120798" x1="2.90999" y1="14.7246" x2="15.9061" y2="2.90999" gradientUnits="userSpaceOnUse">
<stop stop-color="#FC9E3A"/>
<stop offset="1" stop-color="#FCC67C"/>
</linearGradient>
<linearGradient id="paint2_linear_10614_120798" x1="4.57624" y1="13.6199" x2="14.5242" y2="4.57624" gradientUnits="userSpaceOnUse">
<stop stop-color="#FC9E3A"/>
<stop offset="1" stop-color="#FCC67C"/>
</linearGradient>
<linearGradient id="paint3_linear_10614_120798" x1="5.03184" y1="13.3093" x2="14.1369" y2="5.03184" gradientUnits="userSpaceOnUse">
<stop stop-color="#FC9E3A"/>
<stop offset="1" stop-color="#FCC67C"/>
</linearGradient>
<clipPath id="clip0_10614_120798">
<rect width="20" height="20" fill="white"/>
</clipPath>
</defs>
</svg>
