<svg width="38" height="38" viewBox="0 0 38 38" fill="none" xmlns="http://www.w3.org/2000/svg">
<mask id="mask0_1357_27705" style="mask-type:alpha" maskUnits="userSpaceOnUse" x="1" y="1" width="36" height="36">
<circle cx="19" cy="19" r="18" fill="#F4ABA4"/>
</mask>
<g mask="url(#mask0_1357_27705)">
<circle cx="19" cy="19" r="18" fill="white"/>
<path d="M22.6175 7.81641L37.2027 16.3282C37.5347 16.529 37.7389 16.6751 37.7389 16.6751L22.6107 27.2677L7.46973 17.3936V16.4957L22.6175 7.81641Z" fill="url(#paint0_linear_1357_27705)"/>
<path d="M22.6061 25.6938L37.1087 17.0346L37.7419 16.6328V17.3885V32.8747C37.7421 33.2476 37.6448 33.6143 37.4592 33.9395C37.2736 34.2648 37.0061 34.5377 36.6823 34.732L23.0988 42.8391C23.0643 42.8577 23.0267 42.8704 22.9878 42.8767C22.9534 42.8867 22.9176 42.8914 22.8818 42.8905C22.7369 42.9304 22.5853 42.9417 22.4359 42.9238C22.2865 42.9059 22.1421 42.8592 22.0111 42.7863H22.0188L18.96 29.1499L22.6061 25.6938Z" fill="#D14A61"/>
<path d="M22.6108 42.4805V25.7016L8.12086 17.0424L7.46973 16.6479L7.46978 17.3938V34.1223L22.0235 42.7942L22.6108 43.1247V42.4805Z" fill="#FFA3B3"/>
<path d="M20.8752 38.9162V36.0062C20.8752 36.0062 20.722 35.9043 20.4794 35.7537L16.9048 33.6328C16.6623 33.4947 16.3559 33.311 16.3559 33.311L16.3555 36.8419C16.3555 36.8419 16.5091 36.9459 16.7516 37.0965L20.8752 39.5161C20.8752 39.5161 20.8752 39.1923 20.8752 38.9162Z" fill="white"/>
<path d="M17.3759 26.7448V20.3552L13.1885 20.0791V24.2541C13.1885 24.2541 13.2523 24.2958 13.3672 24.3711L16.7886 26.4167L17.3759 26.7448Z" fill="white"/>
<path d="M28.3295 11.0322L13.1885 20.0805L17.3759 22.5904L32.5169 13.5547L28.3295 11.0322Z" fill="#F6DBDF"/>
</g>
<path d="M19.082 37.2497C29.1612 37.2497 37.332 29.079 37.332 18.9999C37.332 8.92074 29.1612 0.75 19.082 0.75C9.00284 0.75 0.832031 8.92074 0.832031 18.9999C0.832031 29.079 9.00284 37.2497 19.082 37.2497Z" stroke="#D14A61" stroke-width="0.5" stroke-linecap="round" stroke-linejoin="round"/>
<defs>
<linearGradient id="paint0_linear_1357_27705" x1="22.6044" y1="7.81641" x2="24.6151" y2="27.5285" gradientUnits="userSpaceOnUse">
<stop stop-color="#EE3738"/>
<stop offset="0.420825" stop-color="#F98DAC"/>
<stop offset="1" stop-color="#FDD7E4"/>
</linearGradient>
</defs>
</svg>
