<svg width="38" height="38" viewBox="0 0 38 38" fill="none" xmlns="http://www.w3.org/2000/svg">
<mask id="mask0_1359_27035" style="mask-type:alpha" maskUnits="userSpaceOnUse" x="1" y="1" width="36" height="36">
<circle cx="19" cy="19" r="18" fill="#F4ABA4"/>
</mask>
<g mask="url(#mask0_1359_27035)">
<circle cx="19" cy="19" r="18" fill="white"/>
<path fill-rule="evenodd" clip-rule="evenodd" d="M24.1435 9.03399C24.4981 9.44328 25.0999 9.51867 25.5405 9.20632C26.4002 8.5924 27.5178 9.51867 27.0772 10.4665L24.4767 13.45H20.3179L17.6958 10.4342C17.2552 9.47559 18.3728 8.54931 19.2325 9.16324L19.3078 9.21709C19.7483 9.52944 20.3501 9.44328 20.694 9.03399L21.6289 7.91384C21.7252 7.7975 21.8459 7.70386 21.9824 7.63958C22.119 7.57531 22.2679 7.54199 22.4188 7.54199C22.5696 7.54199 22.7186 7.57531 22.8551 7.63958C22.9916 7.70386 23.1123 7.7975 23.2086 7.91384L24.1435 9.03399ZM9.70068 28.2488C9.70068 21.2048 15.3961 15.4964 22.4241 15.4964C29.4521 15.4964 35.1476 21.2048 35.1368 28.2488C35.1368 33.4511 30.9244 37.6732 25.734 37.6732H19.1036C13.9132 37.6732 9.70068 33.4511 9.70068 28.2488Z" fill="url(#paint0_linear_1359_27035)"/>
<path fill-rule="evenodd" clip-rule="evenodd" d="M20.5756 13.4287H24.2723C24.9278 13.4287 25.4651 13.9672 25.4651 14.6243C25.4651 15.2813 24.9278 15.8198 24.2723 15.8198H20.5756C19.9201 15.8198 19.3828 15.2813 19.3828 14.6243C19.3828 13.9672 19.9201 13.4287 20.5756 13.4287Z" fill="#D14A61"/>
<path d="M19.4087 27.4783V26.5759H21.0397C21.6399 26.5759 22.0965 26.4321 22.4097 26.1444C22.7315 25.848 22.8924 25.4164 22.8924 24.8497C22.8924 24.3004 22.7489 23.882 22.4619 23.5943C22.1835 23.2978 21.7486 23.1496 21.1571 23.1496C21.0788 23.1496 20.957 23.1583 20.7918 23.1758C20.6352 23.1845 20.4656 23.1976 20.2829 23.215C20.1002 23.2237 19.9306 23.2368 19.774 23.2542C19.6175 23.263 19.4957 23.2717 19.4087 23.2804V22.3519C19.6522 22.3432 19.9089 22.3345 20.1785 22.3257C20.4482 22.3083 20.7135 22.2952 20.9744 22.2865C21.2441 22.2778 21.4963 22.2734 21.7312 22.2734C22.314 22.2734 22.8185 22.3737 23.2447 22.5742C23.671 22.766 24.0015 23.0494 24.2364 23.4243C24.4712 23.7991 24.5887 24.2481 24.5887 24.7712C24.5887 25.3292 24.4364 25.8131 24.132 26.2228C23.8275 26.6239 23.4231 26.9334 22.9185 27.1513C22.4227 27.3693 21.8791 27.4783 21.2876 27.4783H19.4087ZM23.2056 30.9569C23.136 30.7912 23.0577 30.6125 22.9707 30.4207C22.8837 30.2289 22.8011 30.0502 22.7228 29.8845C22.6532 29.7189 22.5967 29.6012 22.5532 29.5314L21.0658 26.7329L22.7489 26.6806C22.9751 27.1252 23.2012 27.548 23.4274 27.9491C23.6536 28.3414 23.8493 28.664 24.0145 28.9168C24.1798 29.1696 24.2712 29.3135 24.2886 29.3484C24.3407 29.4268 24.4147 29.5402 24.5104 29.6884C24.6147 29.8279 24.7104 29.9586 24.7974 30.0807L25.515 30.1592L25.4368 30.9569C25.228 30.9569 24.9192 30.9569 24.5104 30.9569C24.1015 30.9569 23.6666 30.9569 23.2056 30.9569ZM19.487 25.2289L19.4609 24.4966L25.8673 24.5097L25.8934 25.2289H19.487ZM19.487 23.0712L19.4087 22.3519L25.8673 22.3519L25.8934 23.0712L19.487 23.0712Z" fill="white"/>
</g>
<path d="M19.082 37.2497C29.1612 37.2497 37.332 29.079 37.332 18.9999C37.332 8.92074 29.1612 0.75 19.082 0.75C9.00284 0.75 0.832031 8.92074 0.832031 18.9999C0.832031 29.079 9.00284 37.2497 19.082 37.2497Z" stroke="#D14A61" stroke-width="0.5" stroke-linecap="round" stroke-linejoin="round"/>
<defs>
<linearGradient id="paint0_linear_1359_27035" x1="10.7489" y1="33.0456" x2="31.8535" y2="20.1466" gradientUnits="userSpaceOnUse">
<stop stop-color="#EE3738"/>
<stop offset="0.502816" stop-color="#F98DAC"/>
<stop offset="1" stop-color="#FDD7E4"/>
</linearGradient>
</defs>
</svg>
