<svg width="38" height="38" viewBox="0 0 38 38" fill="none" xmlns="http://www.w3.org/2000/svg">
<mask id="mask0_1359_27138" style="mask-type:alpha" maskUnits="userSpaceOnUse" x="1" y="1" width="36" height="36">
<circle cx="19" cy="19" r="18" fill="#F4ABA4"/>
</mask>
<g mask="url(#mask0_1359_27138)">
<circle cx="19" cy="19" r="18" fill="white"/>
<path d="M20.8543 0.39209H17.7901C14.9005 0.39209 13.4557 0.39209 12.5594 1.29195C11.6616 2.19182 11.6616 3.63836 11.6616 6.53451V11.9091H26.9828V6.53451C26.9828 3.63836 26.9828 2.19182 26.0849 1.29195C25.1871 0.39209 23.7439 0.39209 20.8543 0.39209Z" fill="#D14A61"/>
<path fill-rule="evenodd" clip-rule="evenodd" d="M21.5213 6.20121C20.8464 5.8324 20.0899 5.63916 19.3212 5.63916C18.5525 5.63916 17.796 5.8324 17.1211 6.20121L9.77611 10.2153C9.05097 10.6115 8.44575 11.1963 8.02408 11.908C7.60241 12.6198 7.37988 13.4323 7.37988 14.2601V21.8429C7.37988 22.6707 7.60241 23.4832 8.02408 24.1949C8.44575 24.9067 9.05097 25.4914 9.77611 25.8877L17.1211 29.9017C17.796 30.2705 18.5525 30.4638 19.3212 30.4638C20.0899 30.4638 20.8464 30.2705 21.5213 29.9017L28.8678 25.8877C29.5929 25.4914 30.1981 24.9067 30.6198 24.1949C31.0415 23.4832 31.264 22.6707 31.264 21.8429V14.2585C31.264 13.4307 31.0415 12.6183 30.6198 11.9065C30.1981 11.1947 29.5929 10.61 28.8678 10.2137L21.5213 6.20121ZM19.3212 13.4447C18.8861 13.4447 18.595 13.9668 18.0128 15.0156L17.8626 15.2859C17.6971 15.5838 17.6144 15.7312 17.4857 15.8295C17.357 15.9277 17.1946 15.9646 16.8744 16.0368L16.5833 16.1043C15.4511 16.3608 14.8857 16.4882 14.7524 16.9213C14.6176 17.3558 15.0022 17.8073 15.7728 18.7103L15.972 18.9437C16.1926 19.2001 16.3014 19.3276 16.3504 19.4873C16.3994 19.647 16.3841 19.8174 16.3504 20.1599L16.3198 20.4716C16.2033 21.677 16.1451 22.2805 16.4975 22.5477C16.8499 22.8149 17.3785 22.5708 18.4372 22.0824L18.7114 21.9565C19.0117 21.8183 19.1618 21.7492 19.3212 21.7492C19.4805 21.7492 19.6322 21.8183 19.9325 21.9565L20.2067 22.0824C21.2639 22.5723 21.794 22.8149 22.1464 22.5477C22.4988 22.2805 22.4406 21.677 22.3241 20.4716L22.2935 20.1599C22.2598 19.8174 22.2429 19.647 22.2935 19.4873C22.3425 19.3291 22.4513 19.2001 22.6704 18.9437L22.8696 18.7103C23.6417 17.8073 24.0263 17.3558 23.8915 16.9213C23.7567 16.4882 23.1913 16.3608 22.0621 16.1043L21.7695 16.0368C21.4478 15.9646 21.2869 15.9293 21.1582 15.8295C21.0295 15.7312 20.9468 15.5838 20.7813 15.2859L20.6311 15.0156C20.0489 13.9683 19.7578 13.4447 19.3212 13.4447Z" fill="url(#paint0_linear_1359_27138)"/>
<path fill-rule="evenodd" clip-rule="evenodd" d="M19.3214 13.4443C18.8863 13.4443 18.5952 13.9664 18.013 15.0153L17.8628 15.2855C17.6973 15.5834 17.6146 15.7309 17.4859 15.8291C17.3572 15.9274 17.1948 15.9643 16.8746 16.0364L16.5835 16.104C15.4513 16.3605 14.8859 16.4879 14.7526 16.9209C14.6178 17.3555 15.0024 17.807 15.773 18.7099L15.9722 18.9433C16.1928 19.1998 16.3016 19.3272 16.3506 19.4869C16.3996 19.6466 16.3843 19.8171 16.3506 20.1595L16.32 20.4713C16.2035 21.6767 16.1453 22.2802 16.4977 22.5474C16.8501 22.8146 17.3787 22.5704 18.4374 22.0821L18.7116 21.9562C19.0119 21.818 19.162 21.7489 19.3214 21.7489C19.4807 21.7489 19.6324 21.818 19.9327 21.9562L20.2069 22.0821C21.2641 22.572 21.7942 22.8146 22.1466 22.5474C22.499 22.2802 22.4408 21.6767 22.3243 20.4713L22.2937 20.1595C22.26 19.8171 22.2431 19.6466 22.2937 19.4869C22.3427 19.3288 22.4515 19.1998 22.6706 18.9433L22.8698 18.7099C23.6419 17.807 24.0265 17.3555 23.8917 16.9209C23.7569 16.4879 23.1915 16.3605 22.0623 16.104L21.7697 16.0364C21.448 15.9643 21.2871 15.9289 21.1584 15.8291C21.0297 15.7309 20.947 15.5834 20.7815 15.2855L20.6313 15.0153C20.0491 13.968 19.758 13.4443 19.3214 13.4443Z" fill="white"/>
</g>
<path d="M19.082 37.2497C29.1612 37.2497 37.332 29.079 37.332 18.9999C37.332 8.92074 29.1612 0.75 19.082 0.75C9.00284 0.75 0.832031 8.92074 0.832031 18.9999C0.832031 29.079 9.00284 37.2497 19.082 37.2497Z" stroke="#D14A61" stroke-width="0.5" stroke-linecap="round" stroke-linejoin="round"/>
<defs>
<linearGradient id="paint0_linear_1359_27138" x1="19.3218" y1="28.8545" x2="19.5865" y2="5.64218" gradientUnits="userSpaceOnUse">
<stop stop-color="#EE3738"/>
<stop offset="0.570607" stop-color="#F98DAC"/>
<stop offset="1" stop-color="#FDD7E4"/>
</linearGradient>
</defs>
</svg>
