<svg width="38" height="38" viewBox="0 0 38 38" fill="none" xmlns="http://www.w3.org/2000/svg">
<mask id="mask0_9128_252037" style="mask-type:alpha" maskUnits="userSpaceOnUse" x="1" y="1" width="36" height="36">
<circle cx="18.9999" cy="18.9999" r="17.9999" fill="#F4ABA4"/>
</mask>
<g mask="url(#mask0_9128_252037)">
<circle cx="18.9999" cy="18.9999" r="17.9999" fill="white"/>
<rect width="6" height="26.2308" transform="matrix(-1 0 0 1 30 14.7695)" fill="#D14A61"/>
<rect width="6" height="31" transform="matrix(-1 0 0 1 22 10)" fill="#D14A61"/>
<rect width="6" height="22.6538" transform="matrix(-1 0 0 1 14 18.3457)" fill="#D14A61"/>
<rect width="6" height="26.2308" transform="matrix(-1 0 0 1 31 13.7695)" fill="url(#paint0_linear_9128_252037)"/>
<rect width="6" height="31" transform="matrix(-1 0 0 1 23 9)" fill="url(#paint1_linear_9128_252037)"/>
<rect width="6" height="22.6538" transform="matrix(-1 0 0 1 15 17.3457)" fill="url(#paint2_linear_9128_252037)"/>
</g>
<path d="M19 37.2497C29.0792 37.2497 37.25 29.079 37.25 18.9999C37.25 8.92074 29.0792 0.75 19 0.75C8.9208 0.75 0.75 8.92074 0.75 18.9999C0.75 29.079 8.9208 37.2497 19 37.2497Z" stroke="#D14A61" stroke-width="0.5" stroke-linecap="round" stroke-linejoin="round"/>
<defs>
<linearGradient id="paint0_linear_9128_252037" x1="5.72727" y1="-4.65385" x2="-12.7301" y2="11.1002" gradientUnits="userSpaceOnUse">
<stop stop-color="#EE3738"/>
<stop offset="0.420825" stop-color="#F98DAC"/>
<stop offset="1" stop-color="#FDD7E4"/>
</linearGradient>
<linearGradient id="paint1_linear_9128_252037" x1="5.72727" y1="-5.5" x2="-15.2401" y2="9.64307" gradientUnits="userSpaceOnUse">
<stop stop-color="#EE3738"/>
<stop offset="0.420825" stop-color="#F98DAC"/>
<stop offset="1" stop-color="#FDD7E4"/>
</linearGradient>
<linearGradient id="paint2_linear_9128_252037" x1="5.72727" y1="-4.01923" x2="-10.4124" y2="11.9317" gradientUnits="userSpaceOnUse">
<stop stop-color="#EE3738"/>
<stop offset="0.420825" stop-color="#F98DAC"/>
<stop offset="1" stop-color="#FDD7E4"/>
</linearGradient>
</defs>
</svg>
