<svg width="366" height="33" viewBox="0 0 366 33" fill="none" xmlns="http://www.w3.org/2000/svg">
<path d="M38.0007 0.921875H67.5807V9.92188H59.1007V31.5519H46.7707V9.93188H38.0007V0.921875ZM142.601 13.3019L136.361 31.5619H124.531L136.141 0.921875H149.001L160.891 31.5619H148.891L142.601 13.3019ZM98.0007 0.921875H127.611V9.92188H119.121V31.5519H106.801V9.93188H98.0007V0.921875ZM82.5607 13.3019L76.3407 31.5619H64.5007L76.1107 0.921875H89.0007L100.891 31.5619H88.8907L82.5607 13.3019Z" fill="#486AAE"/>
<path d="M19.5387 25.4919H6.77072L4.41872 32.0019H0.386719L10.9707 2.89588H15.3807L25.9227 32.0019H21.8907L19.5387 25.4919ZM18.4467 22.3839L13.1547 7.59988L7.86272 22.3839H18.4467Z" fill="#486AAE"/>
<path d="M193.807 11.2959C193.807 13.7319 192.967 15.7619 191.287 17.3859C189.635 18.9819 187.101 19.7799 183.685 19.7799H178.057V32.0019H174.235V2.72788H183.685C186.989 2.72788 189.495 3.52588 191.203 5.12187C192.939 6.71788 193.807 8.77588 193.807 11.2959ZM183.685 16.6299C185.813 16.6299 187.381 16.1679 188.389 15.2439C189.397 14.3199 189.901 13.0039 189.901 11.2959C189.901 7.68388 187.829 5.87788 183.685 5.87788H178.057V16.6299H183.685Z" fill="#486AAE"/>
<path d="M213.971 32.0019L206.999 20.0319H202.379V32.0019H198.557V2.72788H208.007C210.219 2.72788 212.081 3.10588 213.593 3.86188C215.133 4.61788 216.281 5.63988 217.037 6.92788C217.793 8.21588 218.171 9.68588 218.171 11.3379C218.171 13.3539 217.583 15.1319 216.407 16.6719C215.259 18.2119 213.523 19.2339 211.199 19.7379L218.549 32.0019H213.971ZM202.379 16.9659H208.007C210.079 16.9659 211.633 16.4619 212.669 15.4539C213.705 14.4179 214.223 13.0459 214.223 11.3379C214.223 9.60188 213.705 8.25788 212.669 7.30588C211.661 6.35388 210.107 5.87788 208.007 5.87788H202.379V16.9659Z" fill="#486AAE"/>
<path d="M237.382 32.2959C234.666 32.2959 232.188 31.6659 229.948 30.4059C227.708 29.1179 225.93 27.3399 224.614 25.0719C223.326 22.7759 222.682 20.1999 222.682 17.3439C222.682 14.4879 223.326 11.9259 224.614 9.65788C225.93 7.36188 227.708 5.58388 229.948 4.32388C232.188 3.03588 234.666 2.39188 237.382 2.39188C240.126 2.39188 242.618 3.03588 244.858 4.32388C247.098 5.58388 248.862 7.34788 250.15 9.61587C251.438 11.8839 252.082 14.4599 252.082 17.3439C252.082 20.2279 251.438 22.8039 250.15 25.0719C248.862 27.3399 247.098 29.1179 244.858 30.4059C242.618 31.6659 240.126 32.2959 237.382 32.2959ZM237.382 28.9779C239.426 28.9779 241.26 28.5019 242.884 27.5499C244.536 26.5979 245.824 25.2399 246.748 23.4759C247.7 21.7119 248.176 19.6679 248.176 17.3439C248.176 14.9919 247.7 12.9479 246.748 11.2119C245.824 9.44788 244.55 8.08988 242.926 7.13788C241.302 6.18588 239.454 5.70988 237.382 5.70988C235.31 5.70988 233.462 6.18588 231.838 7.13788C230.214 8.08988 228.926 9.44788 227.974 11.2119C227.05 12.9479 226.588 14.9919 226.588 17.3439C226.588 19.6679 227.05 21.7119 227.974 23.4759C228.926 25.2399 230.214 26.5979 231.838 27.5499C233.49 28.5019 235.338 28.9779 237.382 28.9779Z" fill="#486AAE"/>
<path d="M266.241 2.72788C269.433 2.72788 272.191 3.32988 274.515 4.53387C276.867 5.70987 278.659 7.40387 279.891 9.61587C281.151 11.8279 281.781 14.4319 281.781 17.4279C281.781 20.4239 281.151 23.0279 279.891 25.2399C278.659 27.4239 276.867 29.1039 274.515 30.2799C272.191 31.4279 269.433 32.0019 266.241 32.0019H257.127V2.72788H266.241ZM266.241 28.8519C270.021 28.8519 272.905 27.8579 274.893 25.8699C276.881 23.8539 277.875 21.0399 277.875 17.4279C277.875 13.7879 276.867 10.9459 274.851 8.90188C272.863 6.85788 269.993 5.83588 266.241 5.83588H260.949V28.8519H266.241Z" fill="#486AAE"/>
<path d="M290.561 2.72788V21.2499C290.561 23.8539 291.191 25.7859 292.451 27.0459C293.739 28.3059 295.517 28.9359 297.785 28.9359C300.025 28.9359 301.775 28.3059 303.035 27.0459C304.323 25.7859 304.967 23.8539 304.967 21.2499V2.72788H308.789V21.2079C308.789 23.6439 308.299 25.7019 307.319 27.3819C306.339 29.0339 305.009 30.2659 303.329 31.0779C301.677 31.8899 299.815 32.2959 297.743 32.2959C295.671 32.2959 293.795 31.8899 292.115 31.0779C290.463 30.2659 289.147 29.0339 288.167 27.3819C287.215 25.7019 286.739 23.6439 286.739 21.2079V2.72788H290.561Z" fill="#486AAE"/>
<path d="M313.736 17.3439C313.736 14.4879 314.38 11.9259 315.668 9.65788C316.956 7.36188 318.706 5.56988 320.918 4.28188C323.158 2.99388 325.636 2.34988 328.352 2.34988C331.544 2.34988 334.33 3.11988 336.71 4.65988C339.09 6.19988 340.826 8.38388 341.918 11.2119H337.34C336.528 9.44788 335.352 8.08988 333.812 7.13788C332.3 6.18588 330.48 5.70988 328.352 5.70988C326.308 5.70988 324.474 6.18588 322.85 7.13788C321.226 8.08988 319.952 9.44788 319.028 11.2119C318.104 12.9479 317.642 14.9919 317.642 17.3439C317.642 19.6679 318.104 21.7119 319.028 23.4759C319.952 25.2119 321.226 26.5559 322.85 27.5079C324.474 28.4599 326.308 28.9359 328.352 28.9359C330.48 28.9359 332.3 28.4739 333.812 27.5499C335.352 26.5979 336.528 25.2399 337.34 23.4759H341.918C340.826 26.2759 339.09 28.4459 336.71 29.9859C334.33 31.4979 331.544 32.2539 328.352 32.2539C325.636 32.2539 323.158 31.6239 320.918 30.3639C318.706 29.0759 316.956 27.2979 315.668 25.0299C314.38 22.7619 313.736 20.1999 313.736 17.3439Z" fill="#486AAE"/>
<path d="M365.626 2.72788V5.83588H357.646V32.0019H353.824V5.83588H345.802V2.72788H365.626Z" fill="#486AAE"/>
</svg>
